<?xml version="1.0" standalone="no"?>
<!DOCTYPE svg PUBLIC "-//W3C//DTD SVG 20010904//EN"
 "http://www.w3.org/TR/2001/REC-SVG-20010904/DTD/svg10.dtd">
<svg version="1.0" xmlns="http://www.w3.org/2000/svg"
 width="1379.000000pt" height="1200.000000pt" viewBox="0 0 1379.000000 1200.000000"
 preserveAspectRatio="xMidYMid meet">

<g transform="translate(0.000000,1200.000000) scale(0.100000,-0.100000)"
fill="#000000" stroke="none">
<path d="M5797 11633 c-4 -3 -7 -11 -7 -17 0 -6 5 -5 12 2 6 6 9 14 7 17 -3 3
-9 2 -12 -2z"/>
<path d="M5760 11579 c-8 -12 -21 -27 -27 -35 -7 -7 -13 -17 -13 -23 0 -5 -7
-14 -15 -19 -9 -4 -17 -24 -19 -43 -5 -50 -29 -119 -43 -119 -7 0 -11 -18 -10
-52 l2 -53 -44 -1 c-45 0 -77 -25 -67 -51 9 -21 -14 -72 -29 -67 -8 3 -16 11
-18 17 -2 7 -3 -1 -1 -17 5 -35 -29 -78 -54 -69 -9 4 -13 2 -9 -4 3 -5 -1 -19
-9 -31 -18 -26 -74 -31 -74 -7 0 8 -4 15 -10 15 -11 0 -9 28 3 46 11 19 -24
26 -43 9 -9 -8 -22 -15 -28 -15 -18 0 -14 -21 6 -36 15 -12 12 -13 -24 -8 -30
5 -45 2 -57 -11 -11 -10 -25 -14 -37 -10 -17 5 -21 0 -26 -35 -5 -27 -10 -37
-15 -29 -9 15 -3 19 -98 -70 -30 -28 -63 -53 -73 -57 -10 -3 -18 -12 -18 -20
0 -8 -6 -14 -13 -14 -7 0 -20 -15 -30 -33 -10 -18 -31 -49 -47 -68 -17 -18
-30 -37 -30 -41 0 -5 -9 1 -20 12 -22 22 -36 25 -45 10 -3 -5 -20 -7 -38 -5
-18 3 -26 3 -19 -1 6 -3 12 -21 12 -40 0 -24 5 -34 15 -34 8 0 15 -9 15 -20 0
-13 -5 -17 -14 -14 -9 3 -22 -5 -32 -20 -10 -17 -23 -25 -33 -21 -12 3 -16 -2
-17 -21 -3 -38 -11 -40 -42 -11 -16 15 -32 27 -36 27 -5 0 -15 8 -22 18 -7 9
-14 12 -14 5 0 -6 11 -25 25 -41 14 -17 25 -33 25 -36 0 -11 -38 -6 -42 6 -2
6 -12 9 -21 5 -13 -5 -15 -11 -8 -31 6 -13 7 -27 3 -31 -3 -3 1 -3 10 0 13 5
22 -4 37 -36 26 -52 27 -71 5 -62 -14 5 -16 2 -10 -22 19 -74 19 -85 2 -85
-14 0 -20 17 -19 58 1 18 -15 14 -26 -7 -8 -15 -7 -20 5 -25 12 -5 15 -14 10
-39 -3 -17 -6 -72 -7 -121 -1 -49 -7 -100 -14 -113 -15 -29 -11 -139 6 -159
10 -12 6 -22 -20 -54 -17 -21 -31 -45 -31 -53 0 -8 -9 -22 -20 -32 -11 -10
-20 -28 -20 -41 0 -13 -9 -29 -21 -37 -16 -12 -20 -24 -18 -54 3 -47 -11 -76
-48 -94 -15 -8 -28 -21 -28 -29 0 -8 -7 -15 -15 -16 -8 -1 -25 -2 -37 -2 -27
-2 -36 -28 -24 -69 10 -33 -2 -52 -42 -66 -9 -4 -21 -15 -25 -24 -4 -10 -18
-38 -31 -63 -16 -29 -24 -58 -22 -82 2 -29 -1 -38 -13 -38 -9 0 -16 -7 -16
-15 0 -8 -8 -19 -19 -24 -26 -14 -34 -56 -20 -99 10 -30 9 -37 -5 -47 -9 -7
-16 -26 -16 -44 0 -21 -8 -40 -25 -55 -14 -13 -25 -34 -25 -47 0 -56 -13 -100
-27 -95 -10 4 -13 -2 -10 -22 2 -15 1 -34 -3 -42 -4 -8 -16 -42 -26 -75 -10
-33 -21 -62 -24 -65 -12 -10 -43 -125 -42 -155 0 -16 -5 -41 -11 -54 -8 -16
-8 -25 -2 -28 12 -4 4 -141 -9 -162 -14 -22 -18 -158 -6 -236 8 -63 17 -178
24 -321 1 -27 5 -54 9 -60 16 -26 47 -173 53 -251 3 -49 12 -107 20 -131 13
-41 20 -130 25 -322 2 -78 1 -85 -17 -88 -17 -2 -19 -10 -17 -65 1 -34 5 -72
8 -84 3 -12 0 -34 -6 -50 -9 -24 -12 -26 -22 -13 -7 8 -18 16 -26 18 -7 1 -20
9 -28 17 -23 24 -52 36 -83 37 -21 1 -30 7 -32 22 -2 12 -9 20 -16 19 -6 -2
-12 2 -12 7 0 14 -64 12 -78 -2 -9 -9 -15 -9 -23 -1 -18 18 -39 -7 -25 -30 8
-13 8 -20 -3 -26 -10 -7 -11 -13 -2 -30 8 -13 9 -27 3 -38 -12 -20 -3 -61 9
-42 6 10 11 10 24 -1 9 -7 15 -9 14 -4 -4 23 3 34 22 34 11 0 17 -5 14 -10 -7
-12 35 -89 60 -110 14 -12 16 -12 13 1 -1 8 2 14 7 14 6 0 9 -8 8 -17 -2 -14
5 -16 47 -12 41 4 50 2 50 -11 0 -9 4 -14 10 -10 5 3 7 12 3 20 -7 19 11 19
27 0 7 -8 21 -15 31 -15 12 0 19 -7 19 -18 0 -10 6 -24 13 -31 8 -8 12 -58 12
-176 0 -159 1 -164 24 -189 13 -14 28 -23 33 -20 5 3 20 -2 34 -11 21 -14 28
-14 42 -3 27 21 41 42 42 60 0 9 6 19 13 21 6 3 3 6 -7 6 -16 1 -17 4 -8 13 7
7 12 22 12 35 0 15 8 27 23 33 12 5 16 9 9 9 -21 1 -32 44 -15 55 13 7 13 10
2 17 -11 7 -10 9 3 9 11 0 20 11 24 28 3 15 7 33 10 40 2 6 -1 12 -6 12 -6 0
-10 4 -10 10 0 5 7 7 15 4 11 -5 15 1 15 25 0 17 -5 31 -10 31 -6 0 -3 16 6
38 20 45 34 122 22 122 -4 0 -8 5 -8 10 0 6 8 10 18 8 11 -2 18 5 20 20 3 20
0 23 -17 17 -16 -5 -20 -3 -15 9 3 9 12 16 19 16 7 0 15 10 19 23 9 34 7 40
-9 33 -16 -6 -19 3 -9 29 6 13 9 14 16 3 6 -8 7 -1 4 22 -12 68 -3 162 11 123
3 -7 12 -13 20 -13 12 0 14 7 8 36 -4 26 -2 39 7 45 13 9 19 129 7 139 -13 10
-14 55 -1 53 6 -2 12 2 12 7 0 6 -4 10 -9 10 -11 0 -2 80 11 97 5 7 7 25 3 41
-7 35 32 111 54 104 11 -4 13 5 8 44 -4 27 -2 56 3 64 6 10 10 11 10 3 0 -7 5
-13 10 -13 6 0 10 11 10 23 0 13 3 27 7 31 4 4 8 15 8 24 0 11 7 16 18 14 13
-2 17 4 17 31 0 21 7 41 20 52 12 11 20 31 20 51 0 18 5 36 11 39 6 4 7 19 4
36 -5 22 -3 29 9 29 19 0 21 11 5 27 -7 7 -8 19 -4 30 5 10 8 21 7 24 0 3 3
23 8 44 5 21 5 58 1 82 -5 24 -5 45 -1 48 4 3 4 23 0 45 -4 24 -3 40 2 40 5 0
7 13 3 29 -8 36 4 103 17 95 6 -4 6 20 2 63 -4 37 -6 83 -6 101 1 20 -3 32
-11 32 -8 1 -6 5 4 13 9 7 19 26 22 42 3 17 9 44 12 60 5 23 4 26 -4 15 -9
-12 -11 -11 -11 7 0 16 8 25 26 29 23 6 26 10 21 40 -3 19 -1 36 4 40 5 3 7
14 4 25 -5 15 0 20 24 25 17 4 31 11 31 16 0 5 10 18 23 29 12 10 16 18 10 19
-7 0 -13 7 -13 15 0 23 32 55 55 54 17 -1 17 -2 3 -6 -11 -3 -18 -14 -18 -30
0 -15 3 -23 7 -20 3 4 12 2 19 -4 17 -14 27 5 26 48 -1 30 1 33 20 27 19 -6
20 -3 15 24 -7 35 8 59 43 65 l25 3 -29 13 -30 12 27 24 c33 31 41 31 35 0 -3
-15 -1 -25 6 -25 15 0 41 17 41 27 0 5 10 19 23 33 12 13 22 30 22 37 0 7 9
13 20 13 12 0 25 10 30 23 18 44 36 57 66 52 32 -6 60 11 65 39 2 10 13 24 24
30 11 6 24 17 28 24 11 17 34 15 41 -4 3 -9 13 -14 21 -10 8 3 21 -2 30 -10
12 -12 15 -13 15 -2 0 8 -5 19 -12 26 -18 18 -6 22 49 13 36 -5 55 -4 68 5 10
8 21 11 26 9 4 -3 10 -1 14 5 3 5 11 10 16 10 6 0 8 -4 5 -9 -10 -15 19 -20
37 -6 10 7 19 22 20 33 1 16 4 18 14 11 19 -17 35 -1 23 22 -9 15 -7 19 5 19
8 0 15 7 15 16 0 8 5 12 11 9 6 -4 17 2 25 14 9 12 26 21 40 21 13 0 24 5 24
10 0 6 16 10 35 10 24 0 35 -5 35 -15 0 -22 17 -18 23 4 3 14 11 18 28 15 13
-2 19 -2 13 1 -6 3 -8 19 -6 35 4 25 7 28 19 19 10 -9 17 -9 25 -1 15 15 51
15 65 1 16 -16 77 6 105 39 13 15 36 34 51 42 16 8 33 22 38 32 6 11 21 18 37
18 26 -1 26 -1 8 -15 -17 -13 -17 -15 -3 -15 9 0 21 8 26 18 12 22 122 56 184
57 42 0 49 3 60 28 6 15 18 27 26 27 10 0 11 -3 2 -13 -6 -8 -8 -17 -4 -20 12
-13 23 -7 23 13 0 25 25 37 44 21 11 -9 15 -7 19 9 3 13 10 18 21 14 9 -4 16
-1 16 6 0 10 5 9 18 -2 19 -17 42 -13 42 8 0 20 17 17 25 -3 6 -17 7 -17 20 0
9 13 20 16 39 11 14 -3 26 -10 26 -15 0 -14 28 -11 33 4 3 6 6 -1 7 -18 2 -18
4 -23 7 -12 2 9 13 17 24 17 11 0 31 11 45 25 32 32 69 32 97 1 13 -14 35 -28
49 -31 21 -5 26 -3 25 12 -4 37 107 11 123 -29 5 -13 9 -19 9 -14 1 4 12 1 26
-8 31 -21 33 -20 37 6 2 12 9 23 17 26 10 3 13 -2 9 -22 -4 -19 -1 -26 11 -27
10 0 12 -2 4 -6 -26 -10 -13 -25 16 -20 25 5 28 3 24 -13 -5 -18 0 -20 36 -20
26 0 40 4 36 10 -3 6 -13 10 -21 10 -16 0 -19 36 -3 45 6 4 13 -3 16 -15 4
-13 11 -19 20 -16 9 4 17 -1 20 -14 5 -20 23 -28 23 -10 0 6 7 10 16 10 10 0
13 -6 9 -19 -5 -15 -1 -18 22 -13 16 2 33 9 39 14 8 5 14 3 17 -7 4 -8 12 -12
19 -10 9 4 18 -10 27 -40 13 -46 27 -57 37 -30 4 8 11 15 16 15 13 0 58 -47
58 -61 0 -5 5 -9 12 -9 9 0 9 -3 0 -12 -14 -14 -16 -28 -3 -28 5 0 23 -12 39
-27 48 -45 62 -55 62 -43 0 20 37 10 50 -14 8 -16 18 -22 28 -19 12 5 14 1 9
-25 -7 -36 2 -41 23 -12 18 26 30 26 30 0 0 -11 -5 -20 -12 -20 -6 0 -4 -8 6
-19 10 -11 15 -25 11 -30 -3 -6 1 -21 9 -33 9 -12 16 -17 16 -11 0 6 9 13 21
16 19 5 20 3 15 -31 -6 -35 -5 -36 9 -18 8 11 15 15 15 9 0 -24 -13 -43 -29
-43 -9 0 8 -11 37 -25 30 -14 52 -31 52 -40 0 -8 6 -15 13 -15 8 0 22 -9 31
-19 10 -11 30 -25 46 -31 16 -7 28 -17 27 -24 -1 -7 21 -13 61 -16 58 -5 89
-21 76 -41 -7 -12 28 -20 41 -9 10 9 12 7 8 -8 -4 -16 0 -19 20 -15 22 4 26 0
34 -34 7 -31 14 -39 38 -44 17 -4 24 -7 18 -8 -7 0 -13 -8 -13 -17 0 -10 6
-13 18 -10 14 5 21 -2 30 -27 7 -18 12 -42 12 -53 1 -18 1 -18 11 -1 15 25 29
21 29 -9 0 -18 4 -25 14 -21 7 3 19 0 25 -6 8 -8 14 -8 23 1 15 15 28 16 28 2
0 -5 -8 -10 -17 -10 -14 0 -12 -4 7 -25 28 -29 33 -30 54 -9 14 13 16 14 16 0
0 -8 -5 -18 -10 -21 -6 -4 -8 -11 -5 -16 4 -5 0 -9 -8 -9 -10 0 -13 -7 -10
-20 4 -14 14 -20 33 -20 15 0 30 -7 33 -15 7 -16 -5 -27 -25 -22 -7 2 -3 -1
10 -7 12 -5 22 -17 23 -25 0 -9 3 -33 5 -54 3 -21 1 -36 -3 -34 -6 4 -8 -71
-4 -160 1 -6 10 -15 21 -18 11 -3 20 -11 20 -16 0 -5 -9 -9 -20 -9 -11 0 -20
-7 -20 -15 0 -8 8 -15 18 -15 12 0 14 -3 4 -8 -13 -9 -12 -32 3 -66 5 -11 3
-26 -4 -37 -7 -12 -7 -19 -1 -19 5 0 10 -12 10 -27 0 -16 4 -35 10 -43 6 -9 5
-17 -3 -22 -9 -6 -9 -12 1 -28 7 -12 8 -20 2 -20 -5 0 -10 -4 -10 -10 0 -5 7
-10 16 -10 14 0 15 -10 9 -80 -7 -77 -6 -80 14 -80 17 0 21 -6 21 -36 0 -36
-29 -81 -38 -56 -6 18 -22 15 -22 -5 -1 -16 -2 -16 -15 1 -14 18 -15 17 -15
-22 0 -40 -13 -56 -23 -29 -4 10 -6 10 -6 0 -1 -18 -21 -16 -21 2 0 12 -4 13
-18 4 -18 -11 -21 -11 -146 34 -23 9 -33 17 -25 20 8 2 -5 2 -29 0 -36 -5 -42
-3 -36 11 6 16 -11 23 -20 8 -3 -5 -21 -9 -40 -10 -29 -1 -33 1 -29 18 6 21
-12 29 -19 8 -2 -6 -31 -13 -64 -16 -32 -2 -65 -9 -71 -14 -9 -7 -15 -5 -19 6
-5 13 -9 14 -21 4 -11 -9 -16 -9 -24 3 -7 12 -10 12 -18 0 -5 -7 -17 -11 -28
-7 -10 3 -66 -1 -123 -9 -198 -29 -190 -29 -190 -11 0 9 -4 16 -10 16 -5 0
-10 -7 -10 -16 0 -9 -9 -27 -20 -41 -11 -14 -20 -22 -20 -19 0 4 -11 -6 -25
-22 -14 -17 -25 -37 -25 -46 0 -9 -7 -16 -15 -16 -9 0 -12 -6 -9 -15 4 -8 1
-15 -6 -15 -8 0 -9 -6 -5 -17 4 -10 8 -26 9 -35 1 -10 10 -26 20 -37 10 -11
15 -25 11 -30 -3 -6 -1 -11 4 -11 6 0 11 5 11 10 0 18 29 10 35 -10 8 -24 -6
-23 294 -20 18 0 52 10 74 21 36 17 43 17 52 5 8 -10 26 -13 68 -10 44 3 57 1
57 -10 0 -10 14 -13 59 -11 54 2 60 1 70 -22 11 -24 13 -24 29 -9 14 12 21 13
30 4 8 -8 15 -8 26 1 20 17 28 -1 16 -34 -12 -31 -6 -47 15 -38 9 3 22 0 30
-7 8 -6 18 -9 24 -6 5 3 11 -1 15 -9 4 -11 21 -15 61 -15 49 0 55 -2 55 -21 0
-18 5 -20 38 -17 32 3 37 0 40 -20 4 -24 27 -30 35 -9 4 10 7 10 18 0 7 -7 20
-13 29 -13 9 0 22 -12 28 -26 7 -14 17 -22 22 -19 6 3 10 1 10 -5 0 -7 12 -21
26 -32 14 -12 23 -27 20 -35 -3 -8 1 -21 9 -29 8 -9 15 -26 15 -39 0 -13 5
-27 10 -30 6 -3 10 -28 10 -56 0 -27 5 -49 10 -49 6 0 10 18 10 40 0 22 5 40
10 40 6 0 10 -33 10 -78 0 -54 5 -84 15 -100 12 -16 13 -26 5 -42 -7 -13 -7
-20 0 -20 5 0 10 -12 10 -27 0 -21 3 -24 10 -13 15 24 25 -16 11 -46 -14 -31
-14 -74 -1 -74 6 0 10 9 10 19 0 11 5 23 10 26 6 4 10 -5 10 -21 0 -21 4 -25
19 -21 14 3 17 0 13 -15 -2 -11 0 -29 6 -41 6 -12 13 -39 17 -59 3 -21 13 -42
23 -47 9 -6 13 -11 7 -11 -5 0 -3 -4 5 -9 8 -6 14 -25 14 -45 0 -21 3 -31 8
-23 5 9 8 7 8 -5 0 -9 17 -26 38 -39 28 -17 33 -24 20 -27 -22 -4 -24 -42 -3
-42 12 0 15 -13 15 -60 0 -46 -3 -58 -14 -54 -11 4 -14 -18 -18 -108 -3 -62
-3 -117 0 -123 3 -5 5 -28 3 -52 -1 -24 2 -43 7 -43 5 0 9 -61 9 -147 0 -82 3
-185 8 -230 6 -69 4 -90 -13 -135 -15 -40 -17 -57 -8 -70 8 -14 7 -20 -8 -31
-17 -12 -18 -19 -8 -43 14 -38 13 -84 -3 -84 -23 0 -62 -57 -69 -100 -4 -24
-9 -40 -12 -37 -3 3 -14 -2 -23 -11 -13 -12 -15 -21 -8 -30 16 -20 17 -171 2
-165 -7 2 -16 0 -20 -6 -3 -6 -1 -11 4 -11 18 0 12 -39 -10 -61 -13 -13 -18
-27 -14 -39 7 -22 -24 -82 -37 -74 -4 3 -8 1 -8 -5 0 -5 6 -12 13 -14 9 -4 8
-8 -3 -17 -11 -9 -12 -13 -2 -17 6 -2 12 -12 12 -21 -1 -16 -2 -15 -14 0 -12
16 -17 17 -52 4 -21 -8 -31 -15 -20 -15 16 -1 17 -3 5 -17 -11 -14 -10 -18 6
-30 10 -8 25 -14 32 -14 17 0 17 -16 -1 -23 -8 -3 -17 1 -20 9 -8 21 -42 17
-71 -8 -19 -16 -22 -24 -14 -35 13 -15 -6 -47 -22 -37 -5 3 -9 -2 -9 -10 0 -9
5 -15 12 -14 16 4 23 -31 9 -45 -7 -7 -13 -3 -19 13 l-9 24 -12 -21 c-6 -12
-11 -33 -11 -47 0 -15 -8 -30 -20 -36 -13 -7 -21 -25 -26 -60 l-7 -50 -37 0
c-21 0 -40 3 -43 8 -2 4 -2 1 -1 -5 2 -7 -17 -33 -43 -57 -32 -32 -46 -52 -45
-72 0 -16 5 -30 11 -32 22 -7 12 -52 -14 -64 -14 -6 -25 -16 -25 -23 0 -13
-52 -61 -62 -57 -5 1 -8 -7 -8 -17 0 -11 -4 -23 -10 -26 -5 -3 -10 -17 -10
-31 0 -13 -5 -24 -11 -24 -8 0 -7 -5 1 -15 7 -9 10 -18 8 -21 -7 -6 -39 -8
-56 -3 -8 2 -19 -5 -25 -16 -7 -10 -18 -25 -24 -33 -7 -7 -13 -22 -13 -32 0
-10 -7 -26 -16 -34 -8 -9 -13 -20 -9 -26 3 -5 -3 -15 -14 -22 -15 -9 -17 -16
-9 -25 14 -18 3 -43 -20 -43 -10 0 -27 -9 -37 -20 -10 -11 -24 -20 -32 -20 -7
0 -13 -5 -13 -11 0 -5 -4 -8 -9 -5 -11 7 -21 -17 -21 -48 0 -13 -9 -31 -21
-42 -20 -18 -21 -18 -35 0 -12 17 -14 16 -20 -23 -7 -45 -18 -53 -27 -20 -7
25 -27 16 -27 -12 0 -10 -6 -19 -14 -19 -7 0 -24 -24 -36 -53 -15 -35 -24 -46
-27 -34 -8 30 -29 18 -42 -23 -7 -23 -18 -40 -26 -40 -8 0 -15 -4 -15 -9 0
-15 -51 -20 -57 -5 -6 17 -33 18 -33 2 0 -7 -5 -30 -11 -52 -9 -33 -14 -37
-35 -33 -14 2 -24 -1 -24 -7 0 -6 -7 -3 -14 7 -19 25 -24 22 -37 -23 -7 -22
-15 -40 -19 -40 -4 0 -10 -10 -13 -21 -5 -20 -10 -22 -66 -16 l-60 7 -11 -35
c-11 -33 -48 -61 -93 -70 -9 -2 -32 -20 -51 -39 -27 -29 -41 -36 -72 -36 -30
0 -44 -6 -58 -25 -10 -14 -24 -25 -30 -25 -7 0 -16 -12 -22 -26 -7 -21 -17
-28 -44 -31 -22 -2 -39 2 -45 10 -8 11 -16 12 -35 4 l-25 -10 25 -6 c35 -9 7
-26 -40 -24 -28 1 -38 -4 -46 -20 -8 -20 -17 -22 -84 -23 -48 0 -74 -5 -73
-12 1 -5 -11 -15 -27 -21 -24 -8 -30 -7 -30 5 0 18 -39 18 -46 0 -8 -22 -46
-27 -65 -10 -14 12 -22 13 -38 4 -12 -6 -21 -7 -21 -3 0 4 -9 -3 -21 -16 -18
-19 -23 -20 -32 -8 -19 22 -47 29 -53 12 -7 -17 -31 -20 -36 -4 -2 6 -25 13
-51 16 -38 5 -52 12 -68 34 -12 17 -30 29 -43 29 -31 0 -76 22 -76 39 0 9 -12
12 -45 9 -25 -2 -45 -1 -45 3 0 3 -9 15 -20 27 -26 27 -113 31 -141 7 -15 -15
-17 -14 -23 10 -5 18 -13 25 -30 25 -27 0 -52 25 -59 60 l-4 25 -2 -26 c-1
-17 -8 -28 -21 -32 -16 -4 -18 -1 -14 22 5 24 3 26 -29 25 -19 -1 -39 -4 -44
-7 -12 -8 -26 20 -17 34 3 5 -6 14 -20 21 -14 6 -26 17 -26 25 0 7 -6 13 -14
13 -28 0 -86 44 -82 63 5 21 -10 23 -18 2 -3 -8 -10 -15 -15 -15 -16 0 -61 53
-61 72 0 11 -7 18 -18 18 -10 0 -23 5 -29 11 -6 6 -32 16 -58 23 -27 6 -52 18
-56 26 -3 8 -12 27 -19 41 -10 22 -19 27 -50 27 -21 0 -54 7 -74 16 -21 9 -38
11 -41 5 -9 -14 -25 -11 -25 6 0 8 -9 19 -21 25 -25 14 -21 45 6 45 11 0 21 8
23 18 3 12 -3 17 -21 17 -18 0 -28 9 -42 40 -14 31 -24 40 -42 40 -22 0 -24 3
-18 29 5 25 1 34 -24 57 l-31 27 22 24 21 23 -31 0 c-35 0 -43 19 -17 40 22
18 18 40 -8 40 -12 0 -28 9 -35 20 -7 11 -18 20 -25 20 -16 0 -33 34 -42 84
-8 41 -25 49 -25 11 0 -35 -17 -31 -22 5 -3 18 0 31 9 34 18 7 17 26 -2 26
-20 0 -19 17 3 29 13 8 2 10 -45 11 l-63 0 0 64 c0 79 -11 116 -21 71 -6 -27
-7 -28 -8 -5 -1 25 -46 60 -77 60 -8 0 -14 10 -14 26 0 23 -3 25 -25 20 -25
-6 -36 9 -13 16 9 3 9 18 -2 62 -11 45 -16 55 -24 44 -6 -8 -17 -13 -23 -11
-7 3 -13 -1 -13 -8 0 -8 -6 -5 -13 6 -8 10 -19 15 -25 11 -21 -13 -12 15 11
34 l22 19 -22 -6 c-13 -3 -23 -8 -23 -12 0 -4 -6 -15 -12 -24 -12 -16 -13 -15
-13 8 0 14 4 25 8 25 14 0 37 28 37 45 0 9 -4 13 -10 10 -5 -3 -10 -2 -10 4 0
6 -7 8 -16 4 -12 -4 -14 0 -8 21 5 20 2 26 -10 26 -12 0 -16 10 -16 38 0 24
-7 46 -20 60 -24 26 -29 62 -5 42 18 -15 18 -10 5 25 -6 15 -13 63 -15 107 -6
86 -10 102 -26 92 -6 -4 -6 -11 1 -19 8 -10 8 -15 0 -20 -18 -11 -24 2 -23 55
0 36 -3 50 -13 50 -13 0 -19 13 -15 34 1 4 -3 14 -8 20 -10 12 -9 35 4 69 8
18 -5 23 -21 7 -6 -6 -9 12 -10 51 -1 46 -6 64 -22 82 -12 13 -22 35 -22 49 0
15 -6 28 -12 31 -17 5 -12 148 5 159 8 5 6 13 -8 30 -38 43 -44 48 -59 48 -19
0 -21 16 -3 23 9 3 9 9 -1 26 -7 12 -10 26 -7 31 9 14 -13 50 -30 50 -8 0 -15
7 -15 15 0 8 -7 15 -15 15 -11 0 -15 -11 -15 -39 0 -22 4 -42 8 -45 8 -5 14
-49 16 -123 1 -18 4 -33 8 -33 3 0 4 -8 2 -17 -5 -22 15 -49 41 -56 17 -4 17
-5 -3 -6 -23 -1 -23 -4 -19 -67 3 -58 1 -66 -17 -76 -20 -11 -20 -11 -1 -18
21 -8 14 -13 -30 -23 -11 -3 2 -5 28 -6 70 -2 102 -29 98 -84 -1 -23 4 -60 12
-82 8 -22 12 -57 10 -78 -2 -21 0 -36 4 -34 5 3 8 -16 9 -41 0 -26 8 -76 17
-111 10 -35 15 -71 12 -80 -2 -9 0 -38 5 -66 5 -27 15 -84 23 -125 8 -41 12
-81 10 -88 -3 -6 1 -22 9 -35 8 -12 15 -39 16 -59 1 -21 9 -52 18 -70 15 -28
24 -59 38 -128 9 -44 19 -70 27 -70 5 0 9 -6 9 -12 0 -7 7 -26 15 -42 15 -28
35 -100 39 -138 1 -10 10 -26 19 -36 21 -23 22 -55 3 -90 -26 -49 -53 -117
-65 -165 -6 -27 -18 -55 -25 -63 -8 -7 -16 -17 -18 -21 -1 -5 -25 -19 -52 -33
-26 -13 -51 -31 -54 -38 -7 -19 17 -168 33 -207 7 -16 19 -64 28 -105 9 -41
27 -124 41 -185 36 -161 49 -252 62 -410 3 -49 7 -97 9 -105 1 -10 15 -16 40
-18 26 -2 47 -13 69 -34 17 -17 31 -34 32 -37 0 -3 3 -13 7 -21 15 -41 104
-333 133 -440 9 -36 23 -87 31 -115 8 -27 18 -66 23 -85 5 -19 16 -58 24 -87
9 -28 16 -75 16 -102 0 -51 -4 -57 -54 -99 -14 -11 -11 -22 31 -100 25 -48 61
-111 80 -140 18 -29 33 -54 33 -56 0 -3 18 -31 39 -64 41 -61 161 -300 161
-320 0 -8 33 -12 109 -12 125 0 124 0 121 88 -1 26 -1 70 -2 97 0 28 -4 55 -9
61 -4 6 -9 51 -10 100 -1 54 -7 98 -15 111 -15 25 -18 44 -6 42 19 -3 22 3 12
21 -7 14 -7 20 0 20 5 0 10 5 10 10 0 6 -10 8 -24 4 -23 -5 -45 11 -31 24 3 3
10 0 14 -7 7 -11 11 -9 21 9 6 12 10 23 8 24 -2 2 -14 10 -28 19 -13 9 -19 17
-13 17 6 0 13 11 15 25 5 26 -11 48 -32 43 -7 -2 -13 15 -16 45 -4 37 -1 47
11 47 8 0 15 5 15 10 0 14 -28 12 -33 -2 -3 -10 -7 -10 -20 1 -21 17 -22 31
-2 31 21 0 19 17 -5 30 -11 6 -20 18 -20 28 -1 9 -7 28 -14 41 -13 23 -14 23
-24 5 -16 -28 -14 -5 4 49 10 30 22 47 32 48 12 0 10 3 -5 9 -25 10 -30 25
-12 36 8 5 6 10 -5 16 -9 5 -14 14 -10 20 4 6 -1 8 -14 4 -17 -6 -19 -3 -15
14 3 11 -2 35 -10 53 -9 18 -14 44 -11 58 5 22 5 23 -9 6 -10 -12 -17 -15 -22
-7 -4 6 -4 14 -1 17 3 3 -2 11 -10 18 -18 12 -11 60 7 49 5 -3 7 -9 4 -13 -2
-5 4 -16 15 -26 25 -22 25 -13 3 27 -14 23 -15 32 -5 35 17 7 15 23 -4 23 -9
0 -21 13 -27 30 -6 16 -15 30 -19 30 -4 0 -8 17 -8 38 0 26 6 41 20 50 18 11
19 10 13 -21 -6 -29 -5 -31 10 -18 9 7 17 20 17 27 0 20 -22 56 -42 72 -10 7
-18 23 -18 36 0 12 -11 51 -25 86 -14 35 -25 80 -26 99 0 32 -1 33 -9 14 -12
-31 -24 -29 -18 2 3 14 -1 30 -8 36 -17 14 -14 80 5 95 21 16 5 37 -19 24 -29
-16 -40 -12 -40 14 0 13 -7 27 -16 30 -13 5 -14 9 -4 21 19 22 9 70 -15 70
-13 0 -20 7 -20 20 0 11 -6 26 -13 34 -7 7 -11 20 -8 27 3 7 0 17 -6 20 -8 5
-5 10 7 14 18 6 18 7 -1 26 -14 14 -21 36 -23 74 -1 30 -7 58 -13 61 -7 4 -6
14 2 28 12 23 5 61 -11 61 -6 0 -8 4 -4 10 3 5 13 6 21 3 13 -5 14 -2 6 13 -6
10 -13 27 -16 38 -4 12 -12 16 -22 12 -14 -5 -15 -4 -5 8 7 8 10 20 6 26 -3 5
-1 10 4 10 6 0 11 -5 11 -11 0 -6 6 -9 13 -6 6 2 11 10 9 16 -1 6 2 11 8 11 5
0 10 -10 11 -22 0 -22 1 -22 9 -3 7 17 9 17 9 3 1 -11 9 -18 20 -18 11 0 23
-9 26 -20 4 -11 20 -27 36 -35 16 -9 29 -20 29 -25 0 -6 7 -10 15 -10 8 0 15
-7 15 -15 0 -9 11 -21 25 -27 14 -6 25 -15 25 -20 0 -5 11 -13 26 -18 15 -6
32 -26 44 -53 10 -23 30 -52 44 -65 20 -16 26 -31 26 -61 0 -22 -4 -42 -9 -45
-7 -5 3 -69 16 -101 12 -31 32 -55 37 -47 7 12 106 -76 106 -95 0 -8 4 -12 9
-9 11 7 23 -48 15 -69 -5 -11 1 -15 18 -15 20 0 27 -8 38 -42 15 -45 50 -100
50 -78 0 29 16 -5 25 -53 8 -40 14 -51 27 -49 9 1 19 -2 23 -8 3 -5 2 -10 -3
-10 -6 0 -6 -15 0 -41 7 -27 15 -38 24 -35 13 5 44 -40 44 -63 0 -6 13 -23 29
-39 17 -16 32 -43 36 -65 5 -27 12 -37 24 -35 11 2 25 -16 45 -59 23 -48 35
-63 51 -63 16 0 24 -10 34 -45 10 -35 17 -44 30 -40 12 4 23 -6 39 -33 26 -48
50 -68 81 -70 13 0 31 -8 40 -16 10 -9 21 -16 25 -16 11 0 36 -27 36 -39 0 -6
4 -11 10 -11 5 0 12 -11 16 -25 7 -29 12 -31 28 -11 10 13 14 13 36 0 l25 -15
-27 6 c-22 4 -26 2 -22 -10 8 -20 54 -20 54 0 0 18 1 18 35 5 14 -5 52 -7 85
-3 49 5 60 9 60 24 0 13 12 21 40 29 42 11 54 30 20 30 -11 0 -20 4 -20 9 0 5
-9 12 -19 16 -12 3 -22 17 -24 33 -3 18 -4 13 -6 -15 -2 -71 -18 -48 -26 37
-7 76 -8 80 -31 80 -20 0 -24 5 -23 28 0 24 1 25 9 7 7 -17 9 -15 9 13 1 17
-3 32 -9 32 -5 0 -10 8 -10 18 0 26 -11 34 -26 21 -10 -8 -15 -5 -20 15 -4 17
-13 26 -26 26 -15 0 -18 5 -13 20 9 29 -3 60 -21 53 -7 -3 -14 0 -14 7 0 8 -8
10 -21 7 -11 -3 -36 4 -56 15 -31 19 -33 23 -20 33 10 7 14 20 11 36 -5 22 -4
23 9 7 15 -18 43 -26 32 -9 -3 5 -1 12 5 16 5 3 10 1 10 -4 0 -6 5 -11 12 -11
6 0 19 -7 28 -15 15 -14 19 -14 31 1 11 14 10 18 -6 31 -19 15 -19 15 5 9 14
-3 33 -6 43 -6 9 0 17 -7 17 -15 0 -20 17 -19 41 4 18 16 33 18 126 15 67 -3
111 0 119 7 7 6 22 8 33 4 10 -3 22 -1 26 5 5 8 10 8 20 0 10 -9 15 -6 20 11
7 22 8 22 23 -7 13 -23 17 -25 20 -11 2 9 4 17 5 17 1 0 17 -4 35 -9 29 -9 32
-8 32 12 0 13 3 17 8 10 10 -16 94 -21 100 -5 3 9 15 11 39 6 33 -6 34 -5 24
14 -11 20 -10 20 19 5 35 -17 90 -9 90 13 0 10 7 13 25 8 19 -5 25 -2 25 11 0
12 -6 16 -20 12 -11 -3 -22 -2 -25 3 -3 4 7 11 23 15 40 11 78 15 66 7 -12 -8
-13 -56 -1 -68 4 -4 7 5 7 19 0 16 6 27 14 27 8 0 17 7 20 16 5 12 14 15 36
10 22 -4 30 -2 30 9 0 11 12 15 45 15 39 0 45 3 45 20 0 11 7 23 15 26 8 4 15
12 15 20 0 21 17 17 23 -6 9 -34 26 -23 20 13 -4 28 -1 35 21 45 25 11 25 11
19 -20 -4 -22 -3 -29 5 -24 7 4 12 14 12 22 0 8 7 17 15 20 8 4 12 10 10 15
-7 10 72 69 92 69 7 0 13 4 13 9 0 5 13 11 30 14 16 4 39 16 50 27 11 11 28
20 38 20 10 0 29 11 42 25 13 14 29 25 37 25 7 0 13 5 13 11 0 5 4 8 10 4 5
-3 27 12 50 35 38 38 50 44 78 41 6 -1 12 3 12 9 0 5 7 10 15 10 8 0 22 11 31
25 9 14 23 25 32 25 8 0 29 15 47 33 37 37 86 67 109 67 9 0 16 7 16 15 0 8 3
14 8 14 20 -3 30 3 35 21 3 13 11 18 20 14 9 -3 34 16 67 50 29 30 55 54 59
53 3 -1 16 8 29 21 12 12 27 20 31 17 5 -2 16 6 25 20 9 14 23 25 31 25 8 0
15 6 15 13 0 25 66 65 98 58 10 -1 11 7 6 33 -5 27 -3 36 8 36 14 0 54 40 40
40 -13 0 22 20 36 20 8 0 11 -7 7 -18 -7 -23 19 -89 29 -73 4 6 11 9 15 6 9
-5 -18 -97 -31 -106 -5 -3 -6 -14 -2 -23 6 -15 3 -17 -14 -11 -18 5 -22 2 -22
-14 0 -12 -9 -26 -20 -33 -25 -16 -26 -37 -2 -54 15 -12 13 -13 -20 -14 -37 0
-49 -12 -27 -26 8 -4 7 -9 -2 -16 -11 -7 -11 -11 -1 -15 6 -2 12 -14 11 -26 0
-12 -3 -16 -6 -9 -4 11 -33 18 -33 7 0 -3 11 -29 25 -57 23 -48 24 -54 9 -65
-9 -6 -13 -16 -10 -21 3 -6 3 -18 0 -26 -6 -15 -9 -15 -28 -3 -18 12 -23 12
-34 1 -19 -20 -15 -36 8 -29 24 8 26 -7 4 -26 -13 -10 -17 -10 -26 2 -7 10 -9
7 -5 -13 3 -19 0 -25 -10 -21 -7 3 -13 9 -13 14 0 18 -28 8 -33 -12 -4 -15
-11 -19 -25 -15 -30 10 -39 -12 -45 -109 -4 -51 -11 -91 -17 -93 -6 -2 -15
-15 -20 -28 -7 -18 -20 -25 -50 -30 l-40 -7 0 -48 c0 -37 -4 -49 -15 -49 -16
0 -55 -34 -55 -49 0 -5 -9 -11 -20 -14 -17 -4 -19 -11 -14 -51 6 -37 4 -46 -8
-46 -9 0 -18 9 -21 20 -3 11 -10 20 -15 20 -14 0 -23 -43 -12 -54 6 -6 10 -21
10 -34 0 -18 -4 -22 -19 -17 -18 5 -39 -21 -26 -33 3 -3 5 0 5 6 0 7 7 12 15
12 17 0 20 -27 4 -32 -7 -2 -17 -19 -23 -38 -15 -47 -40 -54 -32 -9 6 31 5 32
-5 9 -6 -15 -8 -48 -4 -82 6 -55 5 -58 -20 -64 -14 -3 -25 -10 -25 -16 0 -5
-4 -7 -9 -3 -5 3 -12 1 -16 -5 -3 -5 1 -10 9 -10 21 0 21 -19 0 -27 -13 -5
-13 -7 -2 -14 10 -7 10 -9 1 -9 -7 0 -13 -6 -13 -13 0 -22 -54 -86 -72 -87
-20 0 -43 -37 -39 -63 1 -11 -4 -17 -19 -17 -17 0 -19 3 -10 19 7 15 7 22 -3
28 -8 4 -17 15 -20 23 -3 8 -6 -4 -6 -27 -1 -45 -21 -73 -52 -73 -25 0 -25
-26 1 -33 32 -8 13 -34 -34 -46 -49 -12 -78 -38 -57 -50 16 -10 -12 -35 -31
-28 -8 4 -7 6 5 6 30 2 18 21 -13 21 -24 0 -31 -5 -36 -27 -11 -51 -13 -53
-53 -53 -50 0 -72 -26 -64 -76 5 -33 4 -34 -26 -34 -17 0 -31 -4 -31 -8 0 -9
-132 -42 -167 -42 -16 0 -23 -6 -23 -20 0 -11 -4 -20 -10 -20 -5 0 -10 9 -10
20 0 11 -7 20 -15 20 -11 0 -15 -11 -15 -40 0 -33 -4 -40 -19 -40 -10 0 -21 7
-25 15 -3 9 -18 15 -36 15 -23 0 -33 -6 -42 -25 -6 -14 -17 -25 -25 -25 -19 0
-16 -30 5 -46 15 -12 14 -13 -10 -14 -27 0 -28 2 -29 53 0 28 -3 46 -6 40 -2
-7 -11 -13 -19 -13 -9 0 -14 -11 -14 -35 0 -19 -4 -35 -10 -35 -5 0 -10 6 -10
13 0 9 -3 8 -9 -2 -13 -21 -31 -4 -31 30 0 16 -5 29 -10 29 -6 0 -9 -18 -8
-40 3 -37 5 -40 33 -40 30 -1 30 -1 7 -13 -24 -14 -20 -27 10 -27 12 0 18 -7
18 -21 0 -12 -4 -17 -11 -14 -5 4 -21 4 -35 1 -23 -6 -25 -10 -22 -71 2 -67
11 -83 22 -40 10 39 22 30 20 -14 l-2 -39 37 5 c23 3 31 1 23 -5 -16 -11 2
-67 18 -57 5 3 10 -1 10 -9 0 -14 91 -16 899 -16 l899 0 8 32 c3 18 28 99 55
180 164 504 230 844 244 1273 3 94 10 229 15 300 5 72 15 204 21 295 5 91 12
172 14 180 3 8 11 58 19 110 25 156 69 353 121 535 40 141 41 155 17 155 -23
0 -32 18 -32 68 0 52 -24 136 -59 207 -39 80 -48 127 -28 156 10 13 14 33 10
49 -3 19 0 29 11 33 11 5 16 17 15 39 -1 18 11 69 26 112 15 45 25 93 22 109
-2 18 1 31 9 34 12 4 16 42 14 127 0 22 6 46 14 55 9 10 18 47 22 92 4 40 10
81 15 90 4 9 11 42 14 75 4 32 9 62 12 67 2 4 6 22 8 40 14 131 17 142 52 174
28 26 33 37 27 55 -4 13 -6 28 -6 33 1 6 3 20 5 33 3 21 27 55 27 38 0 -5 6
-4 13 2 15 13 42 -1 33 -17 -4 -6 -18 -11 -32 -11 -13 0 -24 -5 -24 -11 0 -6
8 -8 18 -5 9 3 29 8 43 11 20 5 25 11 22 26 -3 10 -9 19 -14 19 -5 0 -9 9 -9
20 0 11 6 20 14 20 9 0 12 -7 9 -20 -4 -15 0 -20 16 -20 11 0 21 -6 21 -12 0
-10 3 -9 9 1 5 7 14 11 19 7 14 -8 4 -36 -13 -36 -7 0 -17 -6 -24 -13 -8 -11
-3 -13 25 -13 47 1 54 31 40 149 l-8 67 -37 -6 c-44 -8 -52 -14 -20 -15 23 -1
23 -1 -3 -9 -47 -14 -81 1 -91 40 -5 19 -5 36 0 37 4 2 7 23 5 48 -3 33 0 46
11 51 9 3 13 12 10 21 -3 8 0 25 7 39 10 18 11 30 2 49 -7 14 -12 43 -12 64 0
21 -3 41 -7 44 -15 15 -1 131 18 159 11 15 18 32 14 37 -3 5 7 22 22 37 l27
27 39 -44 c38 -43 39 -45 33 -106 -3 -34 -13 -74 -22 -88 -15 -24 -15 -27 0
-44 9 -9 16 -25 16 -34 0 -9 6 -20 13 -24 7 -4 19 -28 26 -53 7 -25 17 -56 22
-69 6 -13 7 -49 4 -80 -6 -59 5 -118 21 -113 5 2 8 20 7 40 -2 26 0 33 7 22
11 -18 12 -17 39 55 29 79 48 148 56 210 3 27 11 55 17 62 20 25 32 435 13
477 -6 14 -5 17 3 12 16 -10 15 15 -2 39 -7 11 -17 39 -21 62 -3 23 -11 41
-17 40 -6 -1 -13 4 -15 11 -3 6 2 12 11 12 9 0 15 3 15 8 -1 4 -1 9 1 12 1 3
3 17 5 31 3 23 0 27 -21 25 -24 -1 -39 -20 -28 -37 3 -5 0 -9 -5 -9 -6 0 -11
7 -11 16 0 8 -4 12 -10 9 -5 -3 -19 0 -31 9 -20 13 -20 14 -2 19 12 3 9 5 -9
6 -29 1 -39 25 -15 34 10 4 10 7 0 18 -7 7 -13 27 -13 44 0 17 -5 36 -12 43
-9 9 -8 12 5 12 9 0 17 5 17 11 0 6 -7 8 -16 5 -12 -5 -15 0 -12 22 2 15 8 26
16 24 6 -1 12 2 12 8 0 5 -3 10 -8 10 -4 0 -13 23 -19 51 -10 40 -10 55 0 68
19 25 45 21 72 -11 l25 -29 -4 28 c-2 15 -1 22 1 16 2 -7 9 -13 14 -13 5 0 9
6 10 13 0 6 2 24 3 38 1 18 -3 25 -11 22 -7 -3 -13 2 -13 11 0 9 4 16 9 16 5
0 8 15 7 33 -2 20 -7 31 -15 29 -8 -2 -10 4 -6 18 4 14 2 20 -8 20 -8 0 -24 9
-37 20 -22 20 -57 25 -131 21 -31 -2 -37 1 -40 21 -5 30 -4 143 4 423 9 297
14 354 32 399 11 27 14 58 11 114 -3 42 -1 94 5 115 5 21 10 72 11 115 1 42 6
86 12 97 6 11 11 58 12 105 1 47 4 141 7 210 5 125 -5 263 -23 310 -6 14 -11
43 -13 65 -1 22 -12 59 -25 83 -24 47 -27 56 -12 47 10 -6 9 30 -1 40 -3 3 -1
27 5 55 9 47 8 51 -20 87 -36 45 -45 75 -49 166 -2 50 -8 76 -23 96 -19 25
-37 141 -23 141 13 0 8 54 -5 68 -20 20 -14 55 12 66 18 8 20 16 17 70 -5 82
-9 98 -30 121 -10 11 -25 34 -33 50 -8 17 -19 36 -24 44 -6 7 -11 46 -11 85
l0 72 -50 52 c-27 29 -56 52 -62 52 -7 0 -13 7 -13 15 0 8 -6 15 -14 15 -8 0
-17 12 -21 28 -4 15 -10 21 -12 15 -3 -7 -13 -13 -24 -13 -10 0 -19 6 -19 13
0 20 16 38 30 35 7 -2 15 3 17 10 3 6 0 12 -6 12 -7 0 -31 19 -56 43 -24 23
-60 56 -79 74 -33 29 -34 33 -25 67 14 52 -5 90 -46 91 -25 0 -31 4 -33 27 -2
14 -10 29 -18 32 -17 7 -19 -20 -1 -28 6 -3 -1 -4 -18 0 -31 6 -134 64 -135
76 0 4 13 5 29 2 27 -6 28 -4 34 38 3 23 3 46 -1 49 -12 11 -64 20 -58 11 3
-5 -8 -9 -24 -9 -16 0 -31 6 -34 13 -3 7 -14 10 -25 7 -14 -3 -21 0 -21 8 0 8
-7 22 -14 32 -14 17 -16 18 -40 2 -27 -18 -46 -13 -46 11 0 8 -4 14 -10 14 -5
0 -10 11 -10 25 0 14 -4 25 -10 25 -5 0 -13 12 -16 28 -4 15 -15 32 -24 39
-10 7 -20 25 -23 42 -4 20 -16 33 -37 42 -16 8 -30 21 -30 29 -1 20 -24 50
-39 50 -6 0 -14 7 -17 15 -4 8 -17 15 -29 15 -13 0 -25 4 -27 9 -1 5 -25 20
-53 33 -35 16 -51 30 -53 46 -3 22 -16 29 -26 14 -10 -16 -68 0 -73 19 -3 11
-12 19 -19 19 -8 0 -15 11 -15 28 -2 23 -2 24 -6 5 -2 -13 -6 -23 -9 -23 -13
0 -54 34 -54 44 0 7 -15 18 -34 24 -19 7 -37 19 -40 27 -3 8 -17 15 -30 15
-16 0 -32 9 -42 25 -9 14 -23 25 -32 25 -8 0 -12 3 -9 6 3 4 -5 15 -18 26 -14
11 -25 25 -25 33 0 18 -28 28 -80 29 l-45 1 -3 43 c-3 35 -6 42 -20 38 -17 -6
-42 31 -42 61 0 7 -4 13 -10 13 -5 0 -7 -21 -3 -50 5 -40 3 -51 -10 -56 -22
-8 -64 25 -78 61 -6 17 -12 26 -14 20 -1 -5 -9 -36 -16 -68 -7 -33 -17 -56
-23 -54 -6 2 -23 -2 -38 -10 -27 -13 -28 -13 -22 17 5 23 3 30 -9 30 -10 0
-17 11 -19 27 -3 24 -7 27 -39 27 -26 0 -35 4 -32 13 3 7 -2 14 -11 15 -9 0
-22 1 -28 2 -7 1 -13 -4 -13 -9 0 -6 -7 -18 -15 -26 -17 -19 -54 -13 -46 7 3
9 -2 14 -14 14 -12 0 -20 7 -20 17 0 14 -3 13 -23 -5 -13 -12 -33 -22 -45 -22
-13 0 -39 -7 -60 -16 -20 -8 -38 -15 -39 -15 -2 0 -15 -2 -30 -5 -35 -7 -57
-23 -66 -48 -6 -15 -10 -17 -19 -8 -16 16 -28 15 -28 -2 0 -8 -9 -18 -20 -21
-11 -3 -20 -10 -20 -15 0 -5 -15 -7 -32 -3 -39 7 -34 3 -42 30 -6 18 -3 20 13
16 16 -4 19 0 17 21 -2 15 2 26 9 26 6 0 12 6 12 13 0 6 4 20 8 31 5 10 -14
-2 -40 -28 -34 -32 -52 -43 -60 -36 -8 6 -18 4 -31 -8 -24 -22 -81 -42 -99
-35 -8 3 -29 -4 -47 -15 -30 -18 -64 -27 -93 -23 -5 1 -3 5 5 11 8 5 11 12 6
17 -4 4 -12 1 -16 -7 -27 -44 -30 -46 -44 -27 -13 16 -14 16 -19 -4 -5 -17
-11 -20 -29 -16 -13 4 -29 0 -39 -9 -13 -12 -18 -12 -27 -2 -16 20 26 63 61
63 35 -1 47 14 18 22 -20 5 -19 7 10 34 27 25 89 47 152 52 17 1 17 2 1 14 -9
7 -29 9 -45 6 -17 -3 -29 -1 -29 5 0 25 -63 17 -81 -10 -11 -16 -56 -18 -69
-3 -10 12 -7 15 14 21 13 3 29 3 35 0 5 -4 12 -2 16 4 6 10 -24 16 -55 11 -8
-1 -22 -2 -31 -2 -13 0 -16 -9 -13 -46 2 -25 8 -51 14 -58 7 -9 6 -16 -5 -25
-8 -7 -15 -9 -15 -6 0 4 -15 -4 -32 -17 -34 -25 -95 -32 -91 -10 1 6 -4 14
-12 16 -9 4 -12 0 -10 -14 3 -13 -2 -19 -16 -19 -12 0 -19 7 -19 19 0 30 -16
34 -37 9 -10 -13 -28 -31 -40 -41 -21 -18 -21 -18 -19 7 0 14 7 26 14 26 7 0
10 4 7 10 -7 11 53 69 72 70 6 0 18 -7 27 -15 19 -19 36 -19 36 -1 0 8 9 18
20 21 11 3 20 11 20 16 0 5 7 9 15 9 21 0 19 20 -2 21 -10 0 -28 2 -41 3 -12
2 -27 -3 -33 -10 -6 -8 -26 -16 -45 -20 -19 -3 -40 -14 -47 -24 -6 -9 -22 -20
-34 -24 -13 -4 -23 -14 -23 -22 0 -8 -4 -14 -10 -14 -5 0 -10 4 -10 9 0 5 -12
11 -27 13 -38 4 -40 29 -5 66 34 36 30 53 -5 20 l-23 -21 0 21 c0 23 -16 30
-22 11 -4 -12 -65 -37 -109 -46 -49 -9 -59 78 -13 112 9 6 15 19 13 29 -4 15
-6 14 -19 -5z m-41 -131 c0 -28 -2 -30 -9 -13 -12 28 -12 45 0 45 6 0 10 -15
9 -32z m151 -25 c0 -13 -6 -23 -14 -23 -19 0 -33 23 -18 28 7 2 10 7 8 11 -3
4 1 8 9 8 9 0 15 -10 15 -24z m-106 -18 c3 -8 1 -15 -4 -15 -6 0 -10 7 -10 15
0 8 2 15 4 15 2 0 6 -7 10 -15z m1636 -5 c0 -5 -4 -10 -10 -10 -5 0 -10 5 -10
10 0 6 5 10 10 10 6 0 10 -4 10 -10z m-1444 -57 c-3 -8 -6 -17 -6 -19 0 -2 -6
-4 -14 -4 -9 0 -12 8 -9 24 4 16 10 23 20 19 8 -3 12 -12 9 -20z m334 8 c0 -5
-7 -14 -15 -21 -13 -10 -15 -9 -15 9 0 12 6 21 15 21 8 0 15 -4 15 -9z m1110
-5 c0 -17 -14 -29 -23 -20 -8 8 3 34 14 34 5 0 9 -6 9 -14z m55 -25 c-3 -6
-11 -11 -17 -11 -6 0 -6 6 2 15 14 17 26 13 15 -4z m-54 -34 c-13 -13 -26 -3
-16 12 3 6 11 8 17 5 6 -4 6 -10 -1 -17z m-1837 -92 c-4 -8 -8 -15 -10 -15 -2
0 -4 7 -4 15 0 8 4 15 10 15 5 0 7 -7 4 -15z m2836 -275 c0 -5 -2 -10 -4 -10
-3 0 -8 5 -11 10 -3 6 -1 10 4 10 6 0 11 -4 11 -10z m34 -5 c-4 -9 3 -19 19
-26 25 -11 41 -44 31 -61 -7 -11 -44 20 -44 37 0 7 -6 18 -14 25 -15 12 -11
40 5 40 4 0 6 -7 3 -15z m415 -394 c12 -8 12 -12 2 -25 -16 -19 -33 -20 -48
-5 -26 26 12 51 46 30z m301 -416 c0 -8 -4 -15 -9 -15 -13 0 -22 16 -14 24 11
11 23 6 23 -9z m-765 -1345 c3 -5 1 -10 -4 -10 -6 0 -11 5 -11 10 0 6 2 10 4
10 3 0 8 -4 11 -10z m-3738 -172 c-3 -8 -6 -5 -6 6 -1 11 2 17 5 13 3 -3 4
-12 1 -19z m4183 -507 c0 -6 -4 -13 -10 -16 -5 -3 -10 1 -10 9 0 9 5 16 10 16
6 0 10 -4 10 -9z m30 -141 c0 -5 -4 -10 -10 -10 -5 0 -10 5 -10 10 0 6 5 10
10 10 6 0 10 -4 10 -10z m-4350 -196 c0 -8 -5 -12 -10 -9 -6 4 -8 11 -5 16 9
14 15 11 15 -7z m4425 -273 c3 -5 1 -12 -5 -16 -5 -3 -10 1 -10 9 0 18 6 21
15 7z m-4585 -275 c0 -3 -4 -8 -10 -11 -5 -3 -10 -1 -10 4 0 6 5 11 10 11 6 0
10 -2 10 -4z m-110 -536 c0 -5 -8 -10 -17 -10 -15 0 -16 2 -3 10 19 12 20 12
20 0z m4900 -247 c0 -20 -3 -24 -11 -16 -7 7 -9 19 -6 27 10 24 17 19 17 -11z
m-5570 -3 c0 -5 -5 -10 -11 -10 -5 0 -7 5 -4 10 3 6 8 10 11 10 2 0 4 -4 4
-10z m70 -31 c0 -6 -4 -7 -10 -4 -5 3 -10 11 -10 16 0 6 5 7 10 4 6 -3 10 -11
10 -16z m30 -49 c0 -5 -5 -10 -11 -10 -5 0 -7 5 -4 10 3 6 8 10 11 10 2 0 4
-4 4 -10z m6016 -419 c-7 -10 22 -37 30 -28 8 8 34 -18 34 -33 0 -7 -7 -9 -16
-6 -14 5 -15 4 -4 -9 7 -9 19 -14 27 -11 8 3 12 2 9 -2 -3 -5 2 -31 10 -58 8
-27 13 -57 10 -67 -2 -9 2 -24 10 -31 20 -20 18 -31 -11 -50 -14 -9 -25 -24
-25 -32 0 -12 -7 -15 -25 -12 -22 5 -24 3 -18 -21 6 -25 5 -25 -14 -8 -26 23
-37 22 -30 -3 7 -27 2 -25 -23 10 -17 24 -19 34 -10 44 7 9 7 16 1 20 -5 4
-13 1 -17 -6 -9 -15 -22 15 -23 54 -1 21 -5 26 -18 21 -10 -4 -14 -2 -9 5 3 6
2 14 -4 17 -8 5 -8 11 0 20 7 8 8 20 4 27 -23 36 15 142 55 157 34 12 64 13
57 2z m-726 -2087 c0 -8 -4 -12 -10 -9 -5 3 -10 10 -10 16 0 5 5 9 10 9 6 0
10 -7 10 -16z m-4350 -154 c0 -5 -2 -10 -4 -10 -3 0 -8 5 -11 10 -3 6 -1 10 4
10 6 0 11 -4 11 -10z m4295 -10 c-13 -14 -31 -20 -62 -20 -23 0 -43 5 -43 10
0 6 17 10 38 10 20 0 44 5 52 10 26 17 34 11 15 -10z m-4245 -74 c0 -3 -4 -8
-10 -11 -5 -3 -10 -1 -10 4 0 6 5 11 10 11 6 0 10 -2 10 -4z m58 -122 c-3 -26
-4 -25 -14 15 -10 38 -10 41 3 28 8 -8 13 -27 11 -43z m19 -26 c-3 -8 -6 -5
-6 6 -1 11 2 17 5 13 3 -3 4 -12 1 -19z m30 -20 c-3 -8 -6 -5 -6 6 -1 11 2 17
5 13 3 -3 4 -12 1 -19z m243 -317 c0 -22 -15 -35 -29 -27 -13 9 -1 46 15 46 8
0 14 -9 14 -19z m3490 -5 c0 -3 -4 -8 -10 -11 -5 -3 -10 -1 -10 4 0 6 5 11 10
11 6 0 10 -2 10 -4z m-138 -171 c0 -5 -5 -11 -11 -13 -6 -2 -11 4 -11 13 0 9
5 15 11 13 6 -2 11 -8 11 -13z m-3241 -137 c0 -10 2 -10 6 0 7 19 19 15 30
-11 12 -26 2 -54 -16 -43 -17 11 -43 66 -31 66 5 0 10 -6 11 -12z m-316 -327
c3 -5 1 -12 -5 -16 -5 -3 -10 1 -10 9 0 18 6 21 15 7z m3958 -58 c-7 -2 -19
-2 -25 0 -7 3 -2 5 12 5 14 0 19 -2 13 -5z m-8 -23 c3 -6 -4 -14 -17 -19 -28
-10 -30 -9 -22 13 7 18 29 21 39 6z m-1599 -276 c-5 -14 -9 -15 -19 -5 -9 9
-9 14 3 21 18 11 24 6 16 -16z m1194 -428 c0 -3 -4 -8 -10 -11 -5 -3 -10 -1
-10 4 0 6 5 11 10 11 6 0 10 -2 10 -4z m-2790 -26 c0 -5 -4 -10 -10 -10 -5 0
-10 5 -10 10 0 6 5 10 10 10 6 0 10 -4 10 -10z m1480 -90 c0 -5 -7 -10 -16
-10 -8 0 -12 5 -9 10 3 6 10 10 16 10 5 0 9 -4 9 -10z m1215 -60 c3 -5 1 -10
-4 -10 -6 0 -11 5 -11 10 0 6 2 10 4 10 3 0 8 -4 11 -10z m-2575 -50 c0 -5 -5
-10 -11 -10 -5 0 -7 5 -4 10 3 6 8 10 11 10 2 0 4 -4 4 -10z m-610 -500 c0 -5
-2 -10 -4 -10 -3 0 -8 5 -11 10 -3 6 -1 10 4 10 6 0 11 -4 11 -10z m-14 -45
c-4 -34 -16 -44 -16 -13 0 21 7 38 16 38 1 0 1 -11 0 -25z m2094 -509 c0 -2
-7 -6 -15 -10 -8 -3 -15 -1 -15 4 0 6 7 10 15 10 8 0 15 -2 15 -4z m-50 -36
c0 -5 -4 -10 -10 -10 -5 0 -10 5 -10 10 0 6 5 10 10 10 6 0 10 -4 10 -10z"/>
<path d="M9656 5584 c-9 -22 3 -32 14 -14 12 19 12 30 1 30 -5 0 -12 -7 -15
-16z"/>
<path d="M6641 11554 c0 -11 3 -14 6 -6 3 7 2 16 -1 19 -3 4 -6 -2 -5 -13z"/>
<path d="M6200 11550 c0 -13 48 -59 54 -52 10 9 7 17 -14 40 -22 23 -40 29
-40 12z"/>
<path d="M5986 11523 c-6 -14 -5 -15 5 -6 7 7 10 15 7 18 -3 3 -9 -2 -12 -12z"/>
<path d="M5750 11479 c0 -5 5 -7 10 -4 6 3 10 8 10 11 0 2 -4 4 -10 4 -5 0
-10 -5 -10 -11z"/>
<path d="M7480 11449 c0 -5 5 -7 10 -4 6 3 10 8 10 11 0 2 -4 4 -10 4 -5 0
-10 -5 -10 -11z"/>
<path d="M7512 11440 c0 -14 2 -19 5 -12 2 6 2 18 0 25 -3 6 -5 1 -5 -13z"/>
<path d="M4647 10710 c3 -11 9 -20 15 -20 5 0 4 9 -2 20 -6 11 -12 20 -14 20
-2 0 -2 -9 1 -20z"/>
<path d="M8825 10600 c-3 -5 1 -10 10 -10 9 0 13 5 10 10 -3 6 -8 10 -10 10
-2 0 -7 -4 -10 -10z"/>
<path d="M4646 10562 c-2 -4 -1 -14 3 -21 6 -9 10 -7 14 8 5 20 -7 29 -17 13z"/>
<path d="M8991 10524 c0 -11 3 -14 6 -6 3 7 2 16 -1 19 -3 4 -6 -2 -5 -13z"/>
<path d="M8958 10453 c7 -3 16 -2 19 1 4 3 -2 6 -13 5 -11 0 -14 -3 -6 -6z"/>
<path d="M9055 10400 c-16 -7 -17 -9 -3 -9 9 -1 20 4 23 9 7 11 7 11 -20 0z"/>
<path d="M7581 9374 c0 -11 3 -14 6 -6 3 7 2 16 -1 19 -3 4 -6 -2 -5 -13z"/>
<path d="M7570 9340 c0 -5 5 -10 11 -10 5 0 7 5 4 10 -3 6 -8 10 -11 10 -2 0
-4 -4 -4 -10z"/>
<path d="M7612 9316 c1 -10 8 -17 13 -17 15 1 12 24 -3 29 -9 3 -13 -2 -10
-12z"/>
<path d="M8297 8755 c6 -17 25 -15 31 3 2 7 -5 12 -17 12 -14 0 -19 -5 -14
-15z"/>
<path d="M8570 8473 c8 -2 25 -9 37 -15 13 -6 26 -8 30 -4 11 11 -19 26 -52
25 -16 0 -23 -3 -15 -6z"/>
<path d="M8755 8230 c3 -5 8 -10 11 -10 2 0 4 5 4 10 0 6 -5 10 -11 10 -5 0
-7 -4 -4 -10z"/>
<path d="M7646 7295 c-3 -9 0 -15 9 -15 8 0 15 7 15 15 0 8 -4 15 -9 15 -5 0
-11 -7 -15 -15z"/>
<path d="M5210 7287 c0 -7 5 -18 12 -25 6 -6 9 -15 5 -19 -4 -4 -13 -1 -19 5
-7 7 -22 12 -35 12 -13 0 -23 4 -23 10 0 7 -40 7 -80 0 -3 0 3 -5 13 -11 28
-17 19 -29 -22 -29 -23 0 -44 -6 -51 -15 -9 -11 -16 -13 -24 -5 -5 5 -22 10
-37 10 -32 0 -48 16 -22 23 10 2 -13 3 -52 1 -48 -3 -74 -9 -81 -19 -6 -8 -20
-15 -31 -15 -14 0 -23 -10 -29 -32 -8 -28 -17 -35 -57 -47 -34 -11 -47 -20
-47 -33 0 -32 -28 -88 -44 -88 -24 0 -37 -33 -26 -70 9 -31 8 -32 -15 -26
l-24 6 21 -37 c12 -21 26 -41 32 -44 5 -4 6 -14 3 -22 -4 -10 2 -17 16 -21 12
-3 23 -3 26 -1 2 3 -1 5 -7 5 -7 0 -12 9 -12 21 0 16 4 19 18 14 9 -4 25 -7
34 -7 10 0 23 -8 28 -19 9 -16 7 -19 -15 -19 -23 0 -45 -24 -33 -36 3 -3 30
-6 61 -7 60 -2 72 -9 72 -38 0 -10 5 -18 10 -18 6 0 9 7 9 15 -1 8 2 14 7 14
5 0 9 -4 9 -9 0 -17 34 -22 49 -6 10 9 11 15 3 15 -6 0 -9 7 -6 15 4 8 12 15
20 15 8 0 14 4 14 9 0 17 -21 23 -36 10 -10 -8 -18 -9 -25 -2 -17 17 -6 48 16
46 10 -1 28 5 38 12 11 7 26 11 33 8 10 -4 14 4 16 23 1 21 3 16 8 -16 l7 -45
1 43 c2 50 22 78 41 59 10 -9 16 -8 27 7 8 11 14 27 14 36 0 23 48 49 59 31 6
-9 17 -8 47 9 21 12 44 28 49 35 14 17 46 22 64 11 9 -6 18 -4 25 5 16 20 147
17 220 -5 44 -13 81 -16 145 -13 47 2 96 1 108 -4 14 -5 23 -4 27 4 3 9 5 9 5
0 1 -9 22 -13 74 -13 65 1 74 3 90 26 15 20 16 28 7 39 -7 8 -10 24 -7 35 3
13 0 20 -9 20 -8 0 -14 6 -14 13 0 8 -4 7 -11 -3 -8 -11 -9 -6 -6 21 4 28 0
42 -14 58 -10 11 -19 25 -19 30 0 13 -45 25 -59 16 -10 -5 -15 6 -13 26 1 3
-12 3 -28 1 -19 -3 -27 -9 -23 -18 4 -10 -2 -11 -29 -3 -46 13 -368 21 -368 9
0 -6 -12 -10 -27 -10 -22 0 -25 2 -13 11 11 7 5 9 -25 7 -28 -2 -39 1 -37 10
1 6 -5 12 -13 12 -8 0 -15 -6 -15 -13z m0 -237 c0 -5 -5 -10 -11 -10 -5 0 -7
5 -4 10 3 6 8 10 11 10 2 0 4 -4 4 -10z m-540 -50 c0 -5 -4 -10 -10 -10 -5 0
-10 5 -10 10 0 6 5 10 10 10 6 0 10 -4 10 -10z"/>
<path d="M5870 7260 c0 -5 5 -10 11 -10 5 0 7 5 4 10 -3 6 -8 10 -11 10 -2 0
-4 -4 -4 -10z"/>
<path d="M4970 7250 c0 -5 5 -10 10 -10 6 0 10 5 10 10 0 6 -4 10 -10 10 -5 0
-10 -4 -10 -10z"/>
<path d="M7623 7245 c-8 -23 4 -30 21 -12 8 8 12 17 9 21 -11 11 -23 7 -30 -9z"/>
<path d="M5895 7210 c4 -6 11 -8 16 -5 14 9 11 15 -7 15 -8 0 -12 -5 -9 -10z"/>
<path d="M8003 6843 c-3 -8 -1 -19 6 -26 6 -6 11 -16 11 -21 0 -6 -7 -2 -15 8
-8 11 -15 14 -15 8 0 -7 -8 -12 -17 -12 -17 1 -17 2 1 15 10 7 16 18 13 22 -8
13 -200 2 -237 -14 -8 -3 -26 -8 -40 -10 -13 -2 -28 -9 -31 -15 -4 -6 -14 -8
-23 -5 -18 7 -106 -68 -106 -90 0 -8 -6 -13 -12 -12 -7 1 -26 -3 -41 -9 -16
-7 -33 -12 -38 -12 -24 0 -99 -42 -99 -56 0 -11 4 -12 19 -4 28 15 30 13 18
-15 -7 -14 -19 -25 -27 -26 -11 0 -11 -2 -2 -6 7 -3 19 0 27 7 8 6 19 9 25 5
5 -3 14 4 19 17 9 22 10 22 10 2 1 -12 -8 -31 -19 -44 -32 -37 -22 -50 25 -31
11 5 25 4 33 -1 6 -6 13 -8 13 -4 1 3 3 11 4 16 1 6 3 13 4 18 1 4 6 0 11 -8
8 -12 12 -12 32 6 37 33 79 56 115 64 30 7 33 6 33 -14 0 -31 30 -116 41 -116
5 0 9 -6 9 -13 0 -7 16 -28 35 -47 30 -29 44 -35 88 -37 29 -1 66 -5 82 -8 46
-9 145 42 145 75 0 4 12 23 27 40 21 26 27 44 29 89 4 81 10 92 42 79 45 -18
97 -43 102 -49 3 -3 13 -8 23 -12 24 -9 21 -35 -9 -79 -22 -31 -24 -41 -14
-53 7 -9 10 -25 6 -41 -4 -16 -3 -23 3 -20 5 4 13 1 18 -6 19 -30 97 -61 165
-66 38 -3 64 -8 57 -12 -6 -4 10 -5 36 -3 32 4 50 2 55 -7 10 -17 80 -4 80 14
0 11 8 12 35 6 23 -5 36 -4 39 4 3 7 5 7 5 -1 1 -8 16 -13 40 -13 22 0 42 6
45 13 5 10 7 10 12 0 6 -14 44 -18 44 -4 0 4 -5 22 -11 39 -7 22 -7 36 1 51
16 31 -14 75 -41 60 -17 -8 -19 -6 -19 21 0 33 -3 35 -28 21 -24 -13 -46 6
-61 52 -10 30 -17 37 -32 32 -14 -5 -19 -1 -19 14 0 12 -4 21 -10 21 -5 0 -10
9 -10 20 0 28 -20 25 -21 -2 -1 -17 -2 -19 -6 -5 -2 9 -10 17 -18 17 -14 0
-25 21 -25 50 0 22 -32 43 -53 34 -8 -3 -17 2 -21 11 -3 9 -10 13 -16 10 -6
-4 -7 1 -3 11 5 14 1 15 -23 10 -19 -4 -36 -1 -49 8 -11 9 -28 16 -37 16 -10
0 -18 7 -18 15 0 18 -5 18 -31 4 -14 -7 -24 -7 -33 0 -7 6 -85 12 -180 15
-140 3 -168 1 -173 -11z m-90 -50 c-7 -2 -19 -2 -25 0 -7 3 -2 5 12 5 14 0 19
-2 13 -5z m27 -199 c0 -8 -7 -22 -16 -31 -14 -14 -17 -14 -31 0 -9 8 -13 23
-10 31 8 21 57 21 57 0z m130 -40 c0 -15 -35 -28 -50 -19 -22 14 -10 34 20 33
17 -1 30 -6 30 -14z m260 -85 c0 -5 -4 -9 -10 -9 -5 0 -10 7 -10 16 0 8 5 12
10 9 6 -3 10 -10 10 -16z"/>
<path d="M8560 6789 c0 -5 5 -7 10 -4 6 3 10 8 10 11 0 2 -4 4 -10 4 -5 0 -10
-5 -10 -11z"/>
<path d="M5347 6767 c-1 -4 -20 -10 -42 -12 -48 -5 -160 -22 -195 -31 -14 -3
-45 -9 -69 -14 -23 -4 -47 -13 -52 -21 -7 -11 -9 -10 -9 4 0 9 -4 17 -10 17
-5 0 -10 -16 -10 -35 0 -32 -2 -35 -30 -35 -33 0 -38 14 -15 44 20 26 19 65
-1 73 -20 7 -35 -15 -28 -42 3 -14 -4 -30 -20 -48 -30 -33 -40 -34 -60 -5 -16
22 -16 22 -16 2 0 -24 29 -54 53 -54 9 0 17 7 17 16 0 31 25 7 27 -27 1 -19
-1 -26 -3 -17 -6 18 -34 14 -34 -5 0 -6 -8 -19 -17 -29 -13 -14 -14 -21 -5
-30 16 -16 15 -28 -2 -28 -16 0 -20 -87 -5 -106 6 -7 0 -18 -16 -30 -29 -21
-33 -39 -8 -30 10 4 14 4 11 0 -4 -4 4 -16 18 -27 29 -22 64 -24 138 -7 26 6
52 8 57 4 5 -3 38 -6 73 -7 80 -1 112 17 121 70 4 21 9 45 12 53 3 8 7 31 8
49 1 19 7 37 13 39 7 2 12 9 12 16 0 16 70 66 93 66 11 0 18 -12 23 -37 11
-60 45 -124 90 -170 36 -36 49 -43 86 -45 24 0 50 0 58 1 8 1 22 2 30 1 52 -3
84 2 106 18 26 18 84 128 84 159 0 10 7 29 16 41 13 19 22 22 47 16 18 -3 37
-10 42 -14 12 -9 80 -23 113 -22 12 0 22 -4 22 -9 0 -5 5 -9 11 -9 7 0 9 10 5
25 -5 18 -2 27 9 31 11 5 13 10 5 19 -8 9 -7 15 2 18 10 4 10 7 -1 15 -11 8
-11 10 0 15 8 3 2 5 -12 4 -22 -1 -25 -5 -21 -27 5 -25 5 -25 -17 -6 -11 11
-21 29 -21 42 0 31 -20 41 -27 15 -5 -21 -28 -25 -28 -5 -1 22 -23 41 -62 52
-24 7 -43 17 -43 22 0 6 -20 10 -44 10 -25 0 -48 5 -51 10 -3 6 -10 10 -16 10
-5 0 -9 -4 -9 -10 0 -5 7 -10 16 -10 10 0 14 -7 12 -22 -2 -17 -8 -22 -23 -19
-11 2 -41 5 -67 6 -26 2 -51 6 -57 9 -5 4 -12 3 -14 -1 -3 -5 -46 -8 -95 -8
-50 0 -88 -3 -85 -7 7 -12 -32 -9 -44 3 -8 8 -13 8 -17 0 -12 -19 -23 -12 -23
14 0 29 7 35 51 45 30 6 30 7 -11 11 -24 3 -44 1 -46 -4z m-17 -53 c0 -13 -10
-25 -25 -32 -14 -7 -25 -8 -25 -2 0 5 -7 7 -15 4 -20 -8 -19 1 5 29 26 29 60
30 60 1z m-90 -34 c0 -5 -5 -10 -11 -10 -5 0 -7 5 -4 10 3 6 8 10 11 10 2 0 4
-4 4 -10z m409 -119 c17 -11 8 -39 -14 -48 -25 -9 -39 11 -26 36 13 23 19 25
40 12z"/>
<path d="M5450 6770 c-12 -8 -9 -10 13 -10 15 0 27 5 27 10 0 13 -20 13 -40 0z"/>
<path d="M5610 6770 l-25 -8 28 -1 c15 -1 27 4 27 9 0 6 -1 10 -2 9 -2 -1 -14
-5 -28 -9z"/>
<path d="M5660 6760 c0 -5 5 -10 11 -10 5 0 7 5 4 10 -3 6 -8 10 -11 10 -2 0
-4 -4 -4 -10z"/>
<path d="M5970 6710 c0 -5 5 -10 10 -10 6 0 10 5 10 10 0 6 -4 10 -10 10 -5 0
-10 -4 -10 -10z"/>
<path d="M4740 6655 c0 -8 5 -15 10 -15 6 0 10 7 10 15 0 8 -4 15 -10 15 -5 0
-10 -7 -10 -15z"/>
<path d="M7330 6600 c0 -5 5 -10 10 -10 6 0 10 5 10 10 0 6 -4 10 -10 10 -5 0
-10 -4 -10 -10z"/>
<path d="M4790 6581 c0 -6 4 -13 10 -16 6 -3 7 1 4 9 -7 18 -14 21 -14 7z"/>
<path d="M3560 6500 c0 -5 5 -10 10 -10 6 0 10 5 10 10 0 6 -4 10 -10 10 -5 0
-10 -4 -10 -10z"/>
<path d="M7446 6441 c-4 -5 -2 -12 4 -16 5 -3 8 -16 6 -27 -2 -18 -10 -22 -57
-23 -50 -2 -54 -3 -57 -28 -6 -46 10 -60 72 -64 55 -3 91 8 154 48 35 22 27
57 -12 50 -6 -1 -20 3 -33 10 -17 9 -26 9 -37 0 -12 -10 -14 -7 -13 20 2 31
-15 50 -27 30z"/>
<path d="M5975 6360 c-3 -5 -1 -10 4 -10 6 0 11 5 11 10 0 6 -2 10 -4 10 -3 0
-8 -4 -11 -10z"/>
<path d="M9741 6334 c0 -11 3 -14 6 -6 3 7 2 16 -1 19 -3 4 -6 -2 -5 -13z"/>
<path d="M9760 6343 c0 -13 29 -38 35 -31 3 3 -4 13 -15 23 -11 10 -20 13 -20
8z"/>
<path d="M9785 6260 c3 -5 8 -10 11 -10 2 0 4 5 4 10 0 6 -5 10 -11 10 -5 0
-7 -4 -4 -10z"/>
<path d="M9856 6175 c-3 -9 0 -15 9 -15 8 0 15 7 15 15 0 8 -4 15 -9 15 -5 0
-11 -7 -15 -15z"/>
<path d="M4085 5350 c4 -6 11 -8 16 -5 14 9 11 15 -7 15 -8 0 -12 -5 -9 -10z"/>
<path d="M4089 5293 c-1 -16 -3 -35 -4 -43 -1 -8 -3 -26 -4 -40 -1 -18 -4 -21
-10 -11 -7 11 -11 10 -20 -7 -16 -30 -4 -53 28 -50 17 2 26 -2 27 -12 5 -56
17 -79 46 -85 38 -9 44 -2 13 15 -32 17 -31 26 3 44 23 13 24 15 7 16 -11 1
-14 4 -7 7 14 6 17 73 2 73 -5 0 -10 9 -10 21 0 11 -4 17 -10 14 -6 -4 -10 5
-10 19 0 16 -6 26 -15 26 -8 0 -15 9 -15 20 0 31 -20 24 -21 -7z m34 -78 c4
-27 3 -35 -3 -25 -5 8 -10 28 -10 44 0 39 6 30 13 -19z"/>
<path d="M4019 5049 c0 -2 -3 -13 -5 -24 -3 -11 -6 -46 -8 -77 -2 -32 -8 -64
-14 -70 -5 -7 -12 -31 -14 -53 -3 -35 0 -41 25 -53 16 -8 31 -11 34 -8 11 10
-16 56 -32 56 -8 0 -15 9 -15 21 0 15 5 19 19 14 13 -4 20 0 24 16 4 14 11 20
21 16 9 -4 16 -2 16 2 0 5 -5 11 -12 13 -6 2 -13 20 -15 39 -2 18 -5 49 -7 67
-2 27 -14 55 -17 41z"/>
<path d="M6285 5010 c-3 -5 -14 -10 -24 -10 -10 0 -23 -6 -29 -12 -19 -24 0
-66 58 -127 63 -67 93 -76 126 -40 28 31 65 47 99 42 23 -3 33 1 43 17 12 19
11 25 -7 41 -12 11 -21 24 -21 29 0 6 -9 10 -20 10 -11 0 -20 4 -20 9 0 24
-72 51 -135 51 -35 0 -67 -4 -70 -10z"/>
<path d="M7060 4993 c-13 -3 -37 -17 -52 -32 l-27 -26 39 -42 c41 -45 88 -61
137 -47 16 4 34 6 41 5 6 -1 16 9 22 23 5 13 16 29 25 34 11 6 15 19 13 37 -3
27 -7 30 -68 41 -68 13 -89 14 -130 7z"/>
<path d="M9582 4976 c7 -8 15 -14 18 -13 3 0 13 -3 23 -8 11 -4 22 -3 28 4 5
6 6 9 3 6 -4 -2 -22 2 -41 10 -44 18 -47 19 -31 1z"/>
<path d="M3992 4740 c0 -14 2 -19 5 -12 2 6 2 18 0 25 -3 6 -5 1 -5 -13z"/>
<path d="M9286 4753 c-12 -12 -6 -33 9 -33 8 0 15 6 15 14 0 17 -14 28 -24 19z"/>
<path d="M9579 4667 c15 -15 14 -27 -4 -27 -9 0 -12 -6 -9 -15 4 -8 10 -15 15
-15 5 0 9 7 9 15 0 8 5 15 10 15 19 0 10 28 -11 33 -17 4 -19 3 -10 -6z"/>
<path d="M3990 4580 c0 -5 5 -10 11 -10 5 0 7 5 4 10 -3 6 -8 10 -11 10 -2 0
-4 -4 -4 -10z"/>
<path d="M9188 4415 c-3 -14 -1 -25 3 -25 5 0 9 11 9 25 0 14 -2 25 -4 25 -2
0 -6 -11 -8 -25z"/>
<path d="M8982 4063 c5 -25 28 -28 28 -4 0 12 -6 21 -16 21 -9 0 -14 -7 -12
-17z"/>
<path d="M5705 3880 c-22 -3 -73 -5 -113 -4 -67 2 -72 0 -67 -17 4 -11 2 -19
-4 -19 -6 0 -11 -11 -11 -24 0 -14 -4 -28 -10 -31 -5 -3 -10 -15 -10 -26 0
-10 -5 -19 -11 -19 -6 0 -9 -12 -7 -27 2 -23 8 -28 29 -28 25 -1 81 -39 88
-60 5 -18 11 -19 11 -1 0 11 7 16 18 15 9 -1 28 3 42 8 17 7 30 7 42 -1 25
-15 31 -36 10 -36 -15 -1 -14 -2 3 -12 11 -7 29 -12 40 -13 13 -1 21 -10 23
-24 3 -18 8 -22 25 -17 26 7 76 -14 78 -31 1 -7 2 -18 3 -25 0 -7 12 -18 26
-25 13 -7 30 -20 37 -29 8 -11 27 -18 51 -18 22 -1 45 -6 53 -12 21 -17 59
-27 59 -15 0 21 -13 42 -19 32 -4 -6 -18 0 -35 16 -23 21 -30 23 -37 12 -13
-21 -12 27 1 52 8 15 7 19 -5 19 -8 0 -15 -4 -15 -10 0 -5 -9 -10 -19 -10 -11
0 -23 5 -26 10 -3 6 -15 10 -26 10 -10 0 -19 5 -19 11 0 5 5 7 10 4 6 -3 10 1
10 9 0 9 -4 16 -10 16 -5 0 -10 23 -10 50 0 28 -4 50 -10 50 -5 0 -10 5 -10
11 0 6 7 9 15 5 10 -3 15 1 15 13 0 15 10 20 48 24 26 3 59 8 75 11 15 4 37 1
49 -5 17 -9 23 -8 30 5 5 9 14 16 21 16 20 0 34 14 42 40 7 22 6 23 -9 11 -9
-7 -16 -9 -16 -3 0 5 -15 15 -32 23 -18 7 -36 18 -40 23 -4 6 -36 11 -70 11
-35 0 -69 4 -75 8 -8 5 -13 4 -13 -2 0 -6 -7 -11 -15 -11 -8 0 -15 5 -15 12 0
9 -3 9 -12 0 -18 -18 -38 -15 -39 6 0 14 -2 14 -9 -3 -5 -11 -9 -15 -9 -10 -1
6 -5 4 -9 -3 -11 -17 -70 4 -74 26 -2 14 -11 16 -43 12z m55 -270 c0 -5 -4
-10 -10 -10 -5 0 -10 5 -10 10 0 6 5 10 10 10 6 0 10 -4 10 -10z"/>
<path d="M4560 3845 c0 -8 4 -15 10 -15 5 0 7 7 4 15 -4 8 -8 15 -10 15 -2 0
-4 -7 -4 -15z"/>
<path d="M7605 3850 c-2 -4 -23 -10 -45 -14 -22 -3 -40 -11 -40 -17 0 -8 -4
-8 -13 -1 -10 8 -16 6 -26 -9 -7 -13 -18 -18 -28 -14 -19 7 -123 -15 -123 -26
0 -4 -6 -9 -14 -11 -24 -6 0 -48 28 -48 13 0 27 -7 31 -17 6 -17 7 -17 16 0
12 21 38 22 45 2 4 -8 16 -15 29 -15 48 0 139 -54 130 -78 -3 -8 0 -22 7 -31
7 -9 8 -13 4 -9 -12 11 -35 -22 -36 -50 0 -13 -7 -37 -16 -54 -13 -25 -14 -32
-2 -39 20 -13 26 -11 38 11 13 24 32 27 23 4 -4 -12 -2 -15 8 -10 8 3 21 9 29
12 9 3 20 15 25 26 15 32 73 62 91 47 8 -6 15 -9 15 -5 1 3 2 9 3 14 4 19 39
61 47 56 8 -5 13 9 10 29 0 4 10 7 24 7 17 0 25 5 25 18 0 12 13 23 34 32 29
11 33 16 25 32 -8 16 -6 18 20 18 22 0 30 -6 35 -23 3 -14 13 -23 26 -23 11 0
20 4 20 8 0 4 16 8 35 8 34 0 35 1 35 39 0 27 -8 49 -25 69 -14 17 -25 35 -25
42 0 10 -3 10 -15 0 -10 -9 -15 -9 -15 -1 0 6 -9 11 -19 11 -11 0 -21 6 -24
13 -3 9 -9 9 -28 0 -13 -6 -65 -14 -116 -18 -75 -5 -93 -3 -100 9 -6 12 -17
13 -46 7 -20 -5 -39 -5 -42 -1 -6 10 -54 10 -60 0z m18 -340 c-3 -11 -10 -20
-15 -20 -6 0 -8 6 -5 14 3 8 1 17 -6 20 -7 2 -2 5 10 5 16 1 20 -3 16 -19z
m37 0 c0 -5 -2 -10 -4 -10 -3 0 -8 5 -11 10 -3 6 -1 10 4 10 6 0 11 -4 11 -10z"/>
<path d="M6126 3836 c3 -9 11 -16 16 -16 13 0 5 23 -10 28 -7 2 -10 -2 -6 -12z"/>
<path d="M6222 3739 c2 -6 7 -10 11 -10 4 1 15 1 25 1 14 0 15 2 2 10 -20 13
-43 13 -38 -1z"/>
<path d="M8670 3554 c0 -8 5 -12 10 -9 6 4 8 11 5 16 -9 14 -15 11 -15 -7z"/>
<path d="M4845 3420 c3 -5 20 -10 36 -10 18 0 28 4 24 10 -3 6 -20 10 -36 10
-18 0 -28 -4 -24 -10z"/>
<path d="M4850 3380 c0 -5 7 -10 15 -10 8 0 15 5 15 10 0 6 -7 10 -15 10 -8 0
-15 -4 -15 -10z"/>
<path d="M7560 3381 c0 -5 9 -7 20 -4 11 3 20 7 20 9 0 2 -9 4 -20 4 -11 0
-20 -4 -20 -9z"/>
<path d="M9417 2981 c-25 -102 -27 -158 -8 -179 9 -10 23 -17 31 -16 8 0 10
-1 4 -3 -12 -4 -16 -53 -5 -53 4 0 13 6 20 13 10 10 11 9 6 -5 -4 -11 -2 -18
4 -18 6 0 11 -11 11 -25 0 -15 6 -25 14 -25 8 0 17 -15 20 -35 4 -19 11 -35
15 -35 4 0 7 -20 6 -45 -1 -30 3 -46 13 -50 10 -4 11 -9 4 -18 -8 -9 -7 -26 3
-59 7 -26 16 -68 18 -95 3 -26 6 -48 7 -48 1 0 2 -17 3 -38 1 -24 -2 -37 -10
-37 -7 0 -13 -6 -13 -12 0 -7 -3 -24 -6 -38 -6 -25 -6 -25 10 -5 17 20 17 20
11 -2 -3 -12 -2 -24 4 -27 5 -3 7 -23 4 -45 -3 -22 -1 -41 5 -45 6 -4 9 -13 6
-21 -4 -8 -10 -12 -15 -9 -5 3 -9 0 -9 -5 0 -6 7 -11 14 -11 13 0 15 -22 12
-132 -2 -76 1 -138 7 -145 6 -9 6 -13 -1 -13 -6 0 -12 -27 -14 -60 -1 -33 -1
-60 2 -60 5 0 2 -196 -4 -325 -2 -38 -7 -126 -11 -195 -8 -153 -12 -206 -20
-245 -7 -34 18 -105 38 -105 8 0 9 -3 1 -8 -16 -11 -34 -70 -34 -111 0 -27 3
-32 10 -21 5 8 10 25 10 38 0 12 5 22 10 22 6 0 10 7 10 15 0 8 5 15 10 15 6
0 10 11 10 24 0 32 51 109 63 97 5 -5 11 -141 12 -303 2 -161 5 -320 7 -353 3
-33 6 -75 6 -92 l2 -33 2040 0 2040 0 -2 748 -3 747 -27 3 c-16 2 -28 7 -28
12 0 4 -8 6 -18 3 -10 -2 -24 3 -31 11 -8 9 -20 16 -27 16 -8 0 -14 4 -14 8 0
9 -65 42 -83 42 -13 0 -160 56 -192 73 -132 71 -177 92 -215 99 -46 8 -79 38
-77 68 3 58 -37 166 -65 176 -10 3 -18 9 -18 13 0 10 -68 81 -78 81 -4 0 -22
13 -41 29 -19 16 -54 34 -78 40 -24 6 -43 15 -43 20 0 5 -15 12 -32 16 -29 5
-60 16 -133 45 -36 15 -58 18 -415 50 -58 5 -148 12 -200 16 -52 3 -102 10
-112 15 -9 5 -27 9 -41 9 -13 0 -68 16 -123 35 -54 19 -110 35 -124 35 -15 0
-30 4 -36 9 -5 5 -34 16 -64 24 -213 58 -269 75 -299 90 -19 9 -42 17 -51 17
-10 0 -40 6 -66 14 -47 14 -108 28 -203 47 -25 5 -79 12 -120 15 -42 3 -103 9
-136 15 -83 12 -122 11 -158 -5 -109 -48 -228 -69 -251 -46 -6 6 -16 10 -24
10 -7 0 -28 15 -45 33 -57 57 -120 101 -130 90 -4 -3 -7 -1 -7 5 0 7 -6 12
-14 12 -7 0 -27 7 -42 15 -16 8 -36 15 -44 15 -24 1 -48 24 -55 53 -9 34 -82
101 -128 118 -21 7 -37 16 -37 20 0 4 -10 11 -22 14 -13 4 -46 18 -74 31 -28
13 -69 27 -91 32 l-40 9 -16 -66z m213 -1476 c0 -8 -4 -15 -10 -15 -5 0 -10 7
-10 15 0 8 5 15 10 15 6 0 10 -7 10 -15z m70 -695 c0 -5 -5 -10 -11 -10 -5 0
-7 5 -4 10 3 6 8 10 11 10 2 0 4 -4 4 -10z"/>
<path d="M8250 2914 c0 -8 5 -12 10 -9 6 4 8 11 5 16 -9 14 -15 11 -15 -7z"/>
<path d="M5160 2901 c0 -12 5 -21 10 -21 6 0 10 6 10 14 0 8 -4 18 -10 21 -5
3 -10 -3 -10 -14z"/>
<path d="M9360 2765 c0 -2 -11 -48 -25 -102 -52 -206 -94 -470 -95 -598 0 -38
-5 -99 -10 -135 -5 -36 -14 -182 -20 -325 -9 -246 -25 -463 -37 -530 -2 -16
-8 -55 -13 -85 -28 -197 -100 -485 -195 -780 -19 -58 -41 -129 -49 -157 l-15
-53 265 0 264 0 0 108 c-1 112 6 249 15 293 3 14 2 35 -2 47 -5 13 -5 60 -1
105 4 45 10 168 13 272 3 105 10 229 16 276 6 47 12 119 14 160 2 41 9 126 14
189 6 63 13 165 16 225 4 61 8 116 11 124 2 7 7 61 10 120 3 58 7 112 10 119
2 7 -1 23 -7 34 -9 17 -8 24 5 33 17 13 23 30 6 20 -6 -4 -10 6 -11 22 -3 109
-7 155 -17 180 -13 34 -37 131 -47 190 -4 24 -11 45 -16 49 -5 3 -9 18 -9 34
0 30 -67 170 -82 170 -4 0 -8 -2 -8 -5z"/>
<path d="M4195 2657 c-17 -12 -46 -38 -65 -58 -19 -20 -48 -44 -65 -55 -33
-21 -38 -24 -75 -55 -14 -11 -37 -28 -52 -37 -16 -9 -28 -20 -28 -24 0 -4 -6
-8 -14 -8 -8 0 -24 -11 -37 -25 -13 -13 -28 -25 -33 -25 -4 0 -17 -11 -27 -24
-10 -13 -34 -27 -53 -30 -19 -4 -39 -13 -46 -21 -7 -8 -39 -20 -71 -26 -33 -6
-62 -16 -65 -20 -3 -5 -11 -9 -19 -9 -7 0 -40 -15 -73 -34 -34 -19 -87 -42
-119 -51 -31 -9 -74 -30 -94 -46 -20 -16 -42 -29 -47 -29 -6 0 -17 -8 -24 -17
-23 -31 -100 -56 -165 -54 -37 1 -108 -37 -156 -84 -26 -25 -53 -45 -61 -45
-8 0 -16 -4 -18 -10 -1 -5 -30 -15 -63 -21 -33 -7 -67 -18 -76 -26 -11 -9 -18
-10 -20 -4 -5 12 -73 -9 -91 -27 -7 -7 -18 -12 -25 -12 -7 0 -13 -4 -13 -8 0
-19 -84 -32 -236 -38 -87 -3 -163 -8 -168 -11 -5 -3 -36 -9 -70 -14 -118 -15
-356 -82 -356 -99 0 -5 -18 -11 -40 -15 -22 -4 -40 -11 -40 -16 0 -5 -6 -9
-14 -9 -16 0 -50 -17 -91 -46 -17 -11 -54 -31 -82 -44 -29 -13 -53 -27 -53
-32 0 -4 -8 -8 -18 -8 -10 0 -33 -11 -52 -25 -19 -14 -40 -25 -47 -25 -7 0
-17 -9 -23 -20 -6 -11 -20 -20 -30 -20 -11 0 -20 -3 -20 -8 0 -4 -15 -13 -33
-20 -17 -8 -44 -20 -59 -28 -14 -8 -33 -14 -42 -14 -8 0 -28 -12 -43 -26 -15
-14 -35 -31 -44 -38 -21 -15 -106 -131 -114 -155 -3 -10 -13 -22 -23 -25 -30
-11 -56 -30 -106 -78 -27 -27 -53 -48 -58 -48 -5 0 -36 -22 -69 -50 -33 -27
-71 -53 -84 -56 -14 -3 -25 -10 -25 -15 0 -5 -11 -9 -25 -9 -14 0 -25 -4 -25
-10 0 -5 -7 -10 -15 -10 -8 0 -15 -4 -15 -8 0 -5 -11 -14 -24 -22 -40 -21 -72
-130 -45 -157 11 -11 -5 -93 -19 -93 -5 0 -18 -20 -29 -44 -12 -24 -31 -47
-42 -51 -12 -3 -21 -15 -21 -25 0 -11 -10 -28 -21 -39 -20 -18 -36 -42 -55
-79 -4 -8 -16 -24 -28 -37 -34 -36 -56 -68 -56 -82 0 -7 -9 -17 -20 -23 -15
-8 -20 -21 -20 -55 l0 -45 1695 0 c1483 0 1695 2 1695 15 0 8 6 29 14 47 8 18
24 58 37 88 12 30 37 88 56 128 18 40 33 75 33 77 0 2 11 28 24 57 58 128 66
147 66 153 0 8 13 37 70 160 38 80 190 475 190 492 0 6 41 96 70 154 5 9 14
35 20 58 6 22 15 41 19 41 5 0 15 24 22 53 6 28 20 71 31 95 10 24 18 56 18
71 0 15 4 31 10 37 5 5 11 19 13 31 2 13 6 26 10 29 4 4 7 20 7 35 0 15 5 31
10 34 6 4 8 11 4 16 -3 5 -1 15 4 22 5 7 13 28 17 47 4 19 13 44 20 55 7 11
16 37 19 58 4 21 11 35 15 32 5 -2 11 17 13 43 3 29 25 88 56 152 29 59 52
119 52 135 0 30 -53 235 -65 255 -9 14 -16 12 -50 -13z"/>
<path d="M4850 2341 c0 -5 6 -14 14 -20 12 -10 13 -8 9 8 -5 21 -23 30 -23 12z"/>
<path d="M4334 2179 c-11 -19 -33 -72 -48 -119 -16 -47 -32 -95 -37 -108 -5
-13 -9 -36 -9 -52 0 -30 -40 -270 -66 -400 -22 -105 -103 -441 -113 -465 -5
-11 -28 -81 -52 -155 -23 -74 -51 -151 -61 -170 -10 -19 -18 -40 -18 -47 0 -8
-4 -21 -9 -31 -9 -16 -48 -115 -76 -192 -24 -65 -44 -115 -110 -268 -36 -84
-65 -157 -65 -162 0 -6 261 -10 701 -10 557 0 699 3 695 13 -3 6 -9 20 -12 30
-4 9 -15 17 -25 17 -11 0 -19 4 -19 8 0 5 -11 14 -25 20 -23 11 -25 17 -25 74
0 35 -6 74 -13 88 -28 52 -81 146 -103 181 -12 19 -41 73 -64 120 -23 46 -44
86 -46 88 -3 3 -22 4 -43 3 -32 -2 -45 3 -73 30 -35 34 -59 99 -123 328 -15
52 -33 111 -40 130 -49 135 -99 344 -99 414 0 67 1 70 37 101 29 25 37 39 37
66 0 64 -31 294 -54 398 l-22 104 -20 -34z"/>
<path d="M4900 2150 c0 -5 5 -10 10 -10 6 0 10 5 10 10 0 6 -4 10 -10 10 -5 0
-10 -4 -10 -10z"/>
<path d="M7566 1765 c-9 -26 -7 -32 5 -12 6 10 9 21 6 23 -2 3 -7 -2 -11 -11z"/>
<path d="M5080 1690 c0 -5 5 -10 11 -10 5 0 7 5 4 10 -3 6 -8 10 -11 10 -2 0
-4 -4 -4 -10z"/>
<path d="M7376 1645 c-3 -9 0 -15 9 -15 16 0 20 16 6 24 -5 3 -11 -1 -15 -9z"/>
<path d="M5101 1614 c0 -11 3 -14 6 -6 3 7 2 16 -1 19 -3 4 -6 -2 -5 -13z"/>
<path d="M5235 987 c-4 -10 -5 -21 -1 -24 10 -10 18 4 13 24 -4 17 -4 17 -12
0z"/>
<path d="M6280 830 c0 -5 9 -10 20 -10 11 0 20 5 20 10 0 6 -9 10 -20 10 -11
0 -20 -4 -20 -10z"/>
<path d="M6600 761 c0 -11 31 -24 39 -16 3 3 -1 10 -9 15 -19 12 -30 12 -30 1z"/>
<path d="M7578 663 c7 -3 16 -2 19 1 4 3 -2 6 -13 5 -11 0 -14 -3 -6 -6z"/>
<path d="M6866 251 c-4 -7 -5 -15 -2 -18 9 -9 19 4 14 18 -4 11 -6 11 -12 0z"/>
</g>
</svg>
